<svg width="484" height="518" xmlns="http://www.w3.org/2000/svg"><g fill-rule="nonzero" fill="none"><path d="M445.32 327.54c-22.65-41.63-53.83-79.78-87.78-107.41-19.66-16-39.16-28.41-58-36.9-20.08-9.06-39.42-13.65-57.49-13.65H242c-18.19 0-37.64 4.65-57.8 13.78-18.89 8.56-38.46 21.07-58.15 37.18C91.91 248.47 60.75 287 38.29 329a3 3 0 005.29 2.83c22.1-41.33 52.73-79.21 86.26-106.64 19.23-15.74 38.27-27.94 56.6-36.27 19.45-8.84 38.14-13.33 55.56-13.34h.1c17.29 0 35.88 4.44 55.24 13.21 18.24 8.27 37.22 20.38 56.41 36 33.36 27.15 64 64.67 86.3 105.63a3 3 0 004.07 1.2 2.94 2.94 0 001.44-1.78 3 3 0 00-.24-2.3z" fill="#003B63"/><path d="M429 363.06c-2.79-6.9-5.9-13.72-9.22-20.25-23.61-46.33-47-81.06-71.57-106.17-32.74-33.48-68.47-50.46-106.21-50.46-87.54 0-143.09 89.28-177.26 156.44-3.57 7-6.9 14.4-9.87 21.92a3 3 0 005.58 2.21c2.91-7.35 6.15-14.55 9.64-21.41 33.44-65.75 87.66-153.16 171.91-153.16 36.07 0 70.36 16.37 101.92 48.65 24.12 24.67 47.18 58.92 70.51 104.71 3.25 6.37 6.28 13 9 19.77a3 3 0 002.78 1.88 2.9 2.9 0 001.12-.22 3 3 0 001.67-3.91z" fill="#003B63"/><path d="M135.24 468.4a235.57 235.57 0 01-94.13-333.94A3.004 3.004 0 0036 131.3a241.54 241.54 0 0096.53 342.45 3 3 0 102.71-5.35zM453.52 142.49a3 3 0 00-5.512.593 3 3 0 00.252 2.287A235.59 235.59 0 01345 469.8a3 3 0 002.64 5.39 241.64 241.64 0 00105.93-332.7h-.05zM253.44 251.58a13.05 13.05 0 01-8.23-8.24 4.5 4.5 0 00-8.54 0 13.07 13.07 0 01-8.24 8.24 4.5 4.5 0 000 8.54 13 13 0 018.24 8.23 4.5 4.5 0 008.54 0 13 13 0 018.23-8.23 4.5 4.5 0 000-8.54zm-5.12 4.27a19.1 19.1 0 00-7.38 7.38 19.1 19.1 0 00-7.38-7.38 19.17 19.17 0 007.38-7.38 19.17 19.17 0 007.38 7.38zM183.83 122.58a28.7 28.7 0 01-18.12-18.13 4.5 4.5 0 00-8.54 0A28.7 28.7 0 01139 122.58a4.5 4.5 0 000 8.54 28.68 28.68 0 0118.13 18.12 4.5 4.5 0 008.54 0 28.69 28.69 0 0118.12-18.12 4.5 4.5 0 000-8.54h.04zm-5.48 4.27a34.76 34.76 0 00-16.91 16.91 34.76 34.76 0 00-16.91-16.91 34.76 34.76 0 0016.91-16.91 34.76 34.76 0 0016.91 16.91zM361.44 147.58a13.05 13.05 0 01-8.23-8.24 4.5 4.5 0 00-8.54 0 13.07 13.07 0 01-8.24 8.24 4.5 4.5 0 000 8.54 13 13 0 018.24 8.23 4.5 4.5 0 008.54 0 13 13 0 018.23-8.23 4.5 4.5 0 000-8.54zm-5.12 4.27a19.1 19.1 0 00-7.38 7.38 19.1 19.1 0 00-7.38-7.38 19.17 19.17 0 007.38-7.38 19.17 19.17 0 007.38 7.38zM279 100.69h-9v-9a3 3 0 00-6 0v9h-10a3 3 0 000 6h10v10a3 3 0 006 0v-10h9a3 3 0 000-6zM91.45 186h-9.14v-8.86a3.05 3.05 0 10-6.1 0V186H66.05a3 3 0 100 5.9h10.16v9.84a3.05 3.05 0 006.1 0v-9.84h9.14a3 3 0 100-5.9zM416.82 196.84l-6.71-6.72 6.71-6.71a3 3 0 00-2.12-5.12 3 3 0 00-2.12.88l-6.72 6.71-6.71-6.71a3 3 0 10-4.24 4.24l6.71 6.71-6.71 6.72a3 3 0 000 4.24 3 3 0 004.24 0l6.71-6.72 6.72 6.72a3 3 0 005.12-2.08 3.001 3.001 0 00-.88-2.16z" fill="#EE383B"/><path d="M374 392.42h-9v-9a3 3 0 00-6 0v9h-10a3 3 0 000 6h10v10a3 3 0 006 0v-10h9a3 3 0 000-6zM129.11 395.66l6.71-6.72a3 3 0 10-4.24-4.24l-6.72 6.71-6.71-6.71a3 3 0 10-4.24 4.24l6.71 6.72-6.71 6.71a3 3 0 000 4.24 3 3 0 004.24 0l6.71-6.71 6.72 6.71a3 3 0 004.24 0 3 3 0 000-4.24l-6.71-6.71z" fill="#EE383B"/><path d="M36.61 102.35l34.6 19.55c3 1.69 4.45.71 6-.86l3.93-4.13c1.5-1.57 1.65-3.11 0-5.38L68.08 93l.09-.09 19 12.23c2.34 1.53 3.83 1.35 5.33-.22l3.63-3.8c1.5-1.57 2.37-3 .58-6l-21-33.81c-1.65-2.64-3.3-1.92-4.63-.53l-3.93 4.12c-1.5 1.58-1.65 3.12 0 5.39l14 19.81-.08.1-19.81-13.6c-2.89-2-4.23-1-5.73.54l-3.36 3.52c-1.5 1.57-2.42 3-.41 5.8l14.42 20-.09.09L45.8 92.8c-2.34-1.62-3.83-1.44-5.34.13l-4.54 4.77c-1.33 1.39-2.01 3.13.69 4.65zM129.19 77.51c11.7-7.26 12.34-19.33 5.05-31.08-5.4-8.7-16.32-17.81-30.08-9.27-13.76 8.54-10.45 22.37-5 31.07 7.24 11.77 18.34 16.53 30.03 9.28zm-20-32.25c5-3.07 9.76.19 14.45 7.75 4.69 7.56 5.45 13 .39 16.18-5.06 3.18-9.69-.09-14.31-7.54-4.62-7.45-5.48-13.32-.53-16.39zM156 57.7a3.46 3.46 0 004.77 2.4l4.68-1.55a3.46 3.46 0 002.39-4.78l-4-12.15 5.53-1.83 9 10.76c1.88 2.21 3.3 2.62 5.42 1.91l6.44-2.14c1.71-.56 3-1.79 1-4l-12.47-13.44a12.73 12.73 0 002.87-13.49c-2.9-8.75-10.32-11.21-22.17-7.28l-13.18 4.37a3.47 3.47 0 00-2.4 4.78L156 57.7zm7-36.05c2.37-.79 5.63-1.33 6.94 2.62 1.31 3.95-2.07 5.74-4.5 6.55l-4.74 1.57-3-9 5.3-1.74zM203.62 43.59A3.45 3.45 0 00207.7 47l12.06-1c14.66-1.27 22.41-10.48 21.09-25.72C239.57 5.4 230.91-1.11 216.31.15l-12.56 1.09a3.47 3.47 0 00-3.44 4.09l3.31 38.26zm14.12-32.83c6.57-.57 10.06 3.37 10.71 11 .67 7.78-2 13-9 13.56l-3.95.34-2.12-24.48 4.36-.42zM272.48 48c7.47 1.08 14.5.29 19.71-7.95 1-1.73 1.41-3.55-1.59-4.69l-4.84-1.87c-2.76-1-3.53.27-5 2.06a6.85 6.85 0 01-6.45 2.49c-4.87-.7-7.06-5.22-5.62-15.17 1.28-8.87 4.88-12.74 9.76-12a6.12 6.12 0 015.15 3.73c1 2.14 1.29 3.61 4.34 3.53l4.67-.1c3.3 0 3.45-1.95 3.08-3.88-1.55-7.6-6.77-11.72-15.58-13-12.41-1.8-21.64 5.21-23.77 20-2.25 15.4 3.97 25.1 16.14 26.85zM302.47 53.12l5.3 2.08c2 .79 3.51.34 5.11-2l3.66-5.3 11.56 4.52-.86 6.41c-.34 2.82.38 4.13 2.41 4.92l5.66 2.25c1.73.68 3.59.65 3.89-2.4l3.72-40a4.59 4.59 0 00-3.14-5.15l-8.28-3.24a4.59 4.59 0 00-5.8 1.64l-24.47 31.87c-1.84 2.44-.49 3.73 1.24 4.4zm29.17-26.93h.12l-2.24 15.89-7.09-2.78 9.21-13.11zM350.56 74l3.2 2.35c1.65 1.21 3.31 1.87 5.28-.81L374 55.11l.1.07-9.65 24.43c-1 2.58-.6 4.08 1.15 5.36l3.05 2.23c1.75 1.29 3.3 1.23 5.46-.52l20.38-16.56.11.08-14.97 20.39c-2 2.68-.83 4.07.82 5.28l3.2 2.34c1.65 1.21 3.31 1.87 5.28-.81l22.69-31a3.46 3.46 0 00-.81-5.28l-7.33-5.37c-1.76-1.29-3.31-1.23-5.51.48l-21.51 17-.1-.08 10-25.44c1-2.58.61-4.08-1.15-5.36l-7.48-5.49a3.47 3.47 0 00-5.28.81l-22.69 31c-1.98 2.7-.85 4.08.8 5.33zM398 113l3.12 3.81c1.3 1.59 2.74 2.64 5.32.54l9.06-7.42 3.73 4.56c6.89 8.42 15.26 11.08 23.44 4.4 7.78-6.36 7.88-14.22-.06-23.93l-9-11a3.47 3.47 0 00-5.32-.53l-29.72 24.31c-2.66 2.07-1.91 3.69-.57 5.26zm33.21-15.91l3.89 4.76c2.06 2.52 2.09 5.39-.33 7.38-3.12 2.55-5.85 1.64-7.72-.64l-4-4.86 8.16-6.64zM197.51 468l-4.74-1.36c-2-.56-3.75-.6-4.66 2.6l-6.93 24.24c-1.35 4.74-4.8 6.55-9.11 5.32-4.31-1.23-5.78-4.45-4.43-9.18l6.93-24.25c.91-3.2-.63-4.11-2.6-4.67l-4.8-1.37c-2-.56-3.75-.61-4.66 2.59l-6.26 21.91c-3.54 12.37-.8 20.74 12.8 24.62 13.6 3.88 21.27-1.51 24.8-13.88l6.26-21.91c.89-3.24-.63-4.14-2.6-4.66zM228.09 506l-4.41-.26a3.46 3.46 0 00-4 3.55l-.22 3.89a3.45 3.45 0 003.54 4l4.41.26a3.45 3.45 0 004-3.55l.23-3.89a3.45 3.45 0 00-3.55-4zM269.36 482.41c-.33-2.22 1.61-3.93 4.15-4.3a7 7 0 015.35 1.21c2 1.45 2.61 2.78 5.85 1.07l3.24-1.7c2.83-1.46 2.18-3.24.92-4.73-4.15-4.89-9.78-6.19-17.06-5.11-9.49 1.4-15.66 7.82-14.54 15.41 2.65 17.92 25.49 8.72 26.7 16.88.4 2.73-2 4.44-5.29 4.93a7.4 7.4 0 01-6.7-2c-1.67-1.69-2-3.33-5.18-1.76l-4.4 2.14c-2.66 1.3-2.39 3.14-1.3 4.79 4.2 6.11 10.38 7.65 18.17 6.5 10.7-1.59 17.42-7.76 16-17.25-2.54-17.28-24.77-8.36-25.91-16.08zM334 492.47a3.47 3.47 0 00-4.86-2.23l-4.14 1.54a3.46 3.46 0 00-2.22 4.86l1.36 3.66a3.46 3.46 0 004.86 2.22l4.1-1.52a3.47 3.47 0 002.22-4.86l-1.32-3.67z" fill="#003B63"/><path d="M207.28 404a2.39 2.39 0 01.77 2 2.51 2.51 0 01-.77 2 3.63 3.63 0 01-2.36.65h-13.14a2.72 2.72 0 01-2.05-.78 2.66 2.66 0 01-.76-2 3.94 3.94 0 011.23-2.81l7.63-7.95c1.58-1.66 2.38-3.18 2.38-4.58a2.42 2.42 0 00-.71-1.87 2.83 2.83 0 00-2-.65 5.94 5.94 0 00-1.92.31 17.41 17.41 0 00-2 .88l-.71.36c-.1.05-.29.15-.56.31a4.62 4.62 0 01-.74.34 2.26 2.26 0 01-.69.11 1.85 1.85 0 01-1.51-.81 3.09 3.09 0 01-.61-1.93 3 3 0 01.24-1.29c.2-.39.505-.715.88-.94a13.81 13.81 0 013.79-1.8 14.19 14.19 0 014.16-.65 11.7 11.7 0 014.68.88 7.08 7.08 0 013.12 2.52 6.64 6.64 0 011.09 3.77 9 9 0 01-.88 4 17.1 17.1 0 01-3 4.05l-5.12 5.22h7.24a3.7 3.7 0 012.32.66zM220.58 405.59c-1.66-2.227-2.487-5.453-2.48-9.68.007-4.227.833-7.443 2.48-9.65a9.39 9.39 0 0114.38 0c1.667 2.233 2.5 5.45 2.5 9.65s-.82 7.427-2.46 9.68a9.41 9.41 0 01-14.4 0h-.02zm9.69-3.53c1-4.029 1-8.241 0-12.27a2.59 2.59 0 00-2.49-1.87 2.56 2.56 0 00-2.48 1.85 25.22 25.22 0 000 12.29 2.58 2.58 0 005 0h-.03zM266.35 404a2.37 2.37 0 01.78 2 2.48 2.48 0 01-.78 2 3.6 3.6 0 01-2.35.65h-13.14a2.74 2.74 0 01-2.06-.78 2.69 2.69 0 01-.75-2 4 4 0 011.22-2.81l7.63-7.95c1.59-1.66 2.38-3.18 2.38-4.58a2.41 2.41 0 00-.7-1.87 2.86 2.86 0 00-2-.65 6 6 0 00-1.93.31 18.11 18.11 0 00-2 .88l-.72.36-.56.31a4.25 4.25 0 01-.74.34 2.15 2.15 0 01-.68.11 1.83 1.83 0 01-1.51-.81 3.09 3.09 0 01-.61-1.93 3 3 0 01.23-1.29 2.42 2.42 0 01.88-.94 14.69 14.69 0 018-2.45 11.77 11.77 0 014.68.88 7.05 7.05 0 013.11 2.52 6.65 6.65 0 011.1 3.77 9 9 0 01-.88 4 16.91 16.91 0 01-3 4.05l-5.11 5.22H264a3.66 3.66 0 012.35.66zM279.66 405.59c-1.66-2.227-2.49-5.453-2.49-9.68 0-4.227.83-7.443 2.49-9.65a9.39 9.39 0 0114.38 0c1.667 2.233 2.5 5.45 2.5 9.65s-.827 7.427-2.48 9.68a9.41 9.41 0 01-14.4 0zm9.68-3.53a25.14 25.14 0 000-12.27 2.59 2.59 0 00-5 0c-1 4.036-1 8.254 0 12.29a2.58 2.58 0 005 0v-.02zM125.72 340.56a3 3 0 01-.88-1 2.71 2.71 0 01-.27-1.29 2.9 2.9 0 01.65-1.88 1.92 1.92 0 011.51-.79c.306 0 .61.05.9.15a4.88 4.88 0 011.08.54c.92.523 1.905.92 2.93 1.18a13.78 13.78 0 003.3.36 6.6 6.6 0 003.22-.63 2 2 0 001.1-1.85 1.68 1.68 0 00-1-1.42 14.2 14.2 0 00-3.91-1.17 23.17 23.17 0 01-5.57-1.8 6.61 6.61 0 01-2.83-2.47 7.32 7.32 0 01.56-7.61 9.08 9.08 0 013.76-2.94 13.28 13.28 0 015.38-1.06 17.12 17.12 0 014.68.58c1.348.37 2.618.98 3.75 1.8.378.256.69.6.91 1 .192.399.284.838.27 1.28a2.91 2.91 0 01-.63 1.87 1.86 1.86 0 01-1.49.79 2.63 2.63 0 01-.86-.13 5.82 5.82 0 01-1.12-.55c-.12-.08-.46-.26-1-.56a8.18 8.18 0 00-2-.72 10.6 10.6 0 00-2.46-.27 5.44 5.44 0 00-3 .7 2.11 2.11 0 00-1.12 1.85c-.017.41.122.81.39 1.12a4.1 4.1 0 001.48.85 22.73 22.73 0 003.21.84 21.63 21.63 0 015.43 1.82 6.93 6.93 0 012.81 2.47 6.4 6.4 0 01.83 3.31 6.9 6.9 0 01-1.34 4.19 8.51 8.51 0 01-3.72 2.81 14.48 14.48 0 01-5.56 1 21.57 21.57 0 01-5.39-.62 12.22 12.22 0 01-4-1.75zM163.45 341.91a3.1 3.1 0 01-.92-2.35v-17h-5.07a3.52 3.52 0 01-2.36-.67 3 3 0 010-4.05 3.63 3.63 0 012.36-.64h16.85a3.65 3.65 0 012.36.64 3 3 0 010 4.05 3.54 3.54 0 01-2.36.67h-5.08v17a3.1 3.1 0 01-.92 2.35 3.76 3.76 0 01-4.86 0zM184.94 341.82a3.6 3.6 0 010-5 3.35 3.35 0 012.51-1 3.28 3.28 0 012.46 1 3.6 3.6 0 010 5 3.28 3.28 0 01-2.46 1 3.35 3.35 0 01-2.51-1zM221.57 341.82a3.09 3.09 0 01-.79-2.3V320.3a3 3 0 013.28-3.24c.9-.05 1.78.267 2.44.88a3.16 3.16 0 01.91 2.36v16.95h8.28c2.08 0 3.13.9 3.13 2.7a2.48 2.48 0 01-.78 2 3.6 3.6 0 01-2.35.65h-11.85a3.08 3.08 0 01-2.27-.78zM253.13 341.34a10.91 10.91 0 01-4.41-4.54 16.11 16.11 0 010-13.79 10.78 10.78 0 014.41-4.51 15.12 15.12 0 0113.5 0A10.67 10.67 0 01271 323a14.75 14.75 0 011.53 6.9 14.56 14.56 0 01-1.53 6.9 10.91 10.91 0 01-4.41 4.54 15 15 0 01-13.46 0zm11.25-5.51a9.34 9.34 0 001.62-5.92 9.23 9.23 0 00-1.64-5.91 6 6 0 00-9 0c-1.08 1.333-1.62 3.307-1.62 5.92a9.35 9.35 0 001.62 5.94 6 6 0 009 0l.02-.03zM287.11 340.13c-1.913-1.873-2.867-4.61-2.86-8.21V320.3a3.34 3.34 0 015.6-2.36 3.22 3.22 0 01.88 2.36v11.88a6.48 6.48 0 001.22 4.21 5 5 0 007.06 0 6.42 6.42 0 001.22-4.21V320.3a3 3 0 013.24-3.24 3.24 3.24 0 012.38.88 3.15 3.15 0 01.9 2.36v11.62c0 3.58-.967 6.31-2.9 8.19-1.933 1.88-4.723 2.823-8.37 2.83-3.653 0-6.443-.937-8.37-2.81zM320 342a3.24 3.24 0 01-.89-2.39V320.3a3 3 0 013.28-3.24 3.35 3.35 0 012.45.88 3.15 3.15 0 01.9 2.36v19.26a3.2 3.2 0 01-.9 2.39 3.35 3.35 0 01-2.45.88A3.2 3.2 0 01320 342zM342.48 342.31a12.13 12.13 0 01-4.05-1.75 3 3 0 01-.88-1 2.71 2.71 0 01-.27-1.29 2.89 2.89 0 01.64-1.88 2 2 0 011.52-.79c.306 0 .61.05.9.15a5.1 5.1 0 011.08.54c.92.523 1.905.92 2.93 1.18a13.78 13.78 0 003.3.36 6.62 6.62 0 003.22-.63 2 2 0 001.09-1.85 1.68 1.68 0 00-1-1.42 14.32 14.32 0 00-3.91-1.17 23.42 23.42 0 01-5.58-1.8 6.64 6.64 0 01-2.82-2.47 7.32 7.32 0 01.56-7.61A9.08 9.08 0 01343 318a13.24 13.24 0 015.38-1.06 17.12 17.12 0 014.68.58c1.345.37 2.612.98 3.74 1.8.384.253.7.597.92 1 .192.399.284.838.27 1.28a2.91 2.91 0 01-.63 1.87 1.86 1.86 0 01-1.49.79 2.69 2.69 0 01-.87-.13 6.1 6.1 0 01-1.11-.55c-.12-.08-.46-.26-1-.56a8.18 8.18 0 00-2-.72 10.6 10.6 0 00-2.46-.27 5.5 5.5 0 00-3 .7 2.12 2.12 0 00-1.11 1.85c-.017.41.122.81.39 1.12a4.1 4.1 0 001.48.85 22.9 22.9 0 003.2.84 21.58 21.58 0 015.44 1.82 7 7 0 012.81 2.47 6.4 6.4 0 01.83 3.31 6.9 6.9 0 01-1.34 4.19 8.57 8.57 0 01-3.72 2.81 14.48 14.48 0 01-5.56 1 21.57 21.57 0 01-5.37-.68z" fill="#EE383B"/></g></svg>
