<svg width="480" height="518" xmlns="http://www.w3.org/2000/svg"><g fill="none" fill-rule="evenodd"><path d="M344.77 472.49a238.64 238.64 0 00104.62-328.56" stroke="#231F20" stroke-width="3.001" stroke-linecap="round" stroke-linejoin="round"/><path d="M40.76 331.12c21.4-40 51.8-78.6 86.63-107.1s74.06-46.92 113.1-46.94h.11c38.86 0 77.91 18.3 112.65 46.59 34.74 28.29 65.1 66.49 86.62 106a1.5 1.5 0 102.63-1.44c-21.69-39.87-52.27-78.36-87.36-106.93-35.09-28.57-74.72-47.25-114.54-47.26h-.11c-40 0-79.81 18.83-115 47.62s-65.79 67.63-87.38 108a1.503 1.503 0 102.65 1.42v.04z" fill="#003B63" fill-rule="nonzero"/><path d="M57.54 366.19a263.065 263.065 0 019.7-21.53c19-37.24 42-75.82 70.52-105 14.24-14.6 29.82-26.84 46.88-35.43a122 122 0 01111.79 0c25.66 12.92 48 34.1 67.52 59.05 19.52 24.95 36.1 53.65 50.31 81.54a253.406 253.406 0 019.06 19.9 1.5 1.5 0 102.78-1.12 257.08 257.08 0 00-9.17-20.14c-19-37.32-42.35-76.18-71.3-105.8-14.48-14.81-30.37-27.31-47.85-36.11a125 125 0 00-114.49 0c-26.15 13.17-48.69 34.62-68.26 59.75-19.57 25.13-36.2 54-50.46 82a260.942 260.942 0 00-9.82 21.79 1.5 1.5 0 102.79 1.1z" fill="#003B63" fill-rule="nonzero"/><path d="M35.78 132.09a240.08 240.08 0 0095.92 340.32 1.5 1.5 0 101.36-2.67 237.09 237.09 0 01-94.73-336.07 1.5 1.5 0 10-2.55-1.58zM345.43 473.84a240.15 240.15 0 00105.28-330.63 1.504 1.504 0 00-2.64 1.44 237.12 237.12 0 01-104 326.49 1.503 1.503 0 001.32 2.7h.04zM239.44 244.76a17.49 17.49 0 0011.09 11.09 17.47 17.47 0 00-11.09 11.09 17.47 17.47 0 00-11.09-11.09 17.49 17.49 0 0011.09-11.09m0-3a3 3 0 00-2.85 2.05 14.53 14.53 0 01-9.18 9.19 3 3 0 000 5.7 14.51 14.51 0 019.18 9.18 3 3 0 005.7 0 14.51 14.51 0 019.18-9.18 3 3 0 000-5.7 14.53 14.53 0 01-9.18-9.18 3 3 0 00-2.85-2.06zM159.94 105.87a33.05 33.05 0 0021 21 33 33 0 00-21 21 33.05 33.05 0 00-21-21 33.1 33.1 0 0021-21m0-3a3 3 0 00-2.85 2.06A30.16 30.16 0 01138 124a3 3 0 000 5.7 30.16 30.16 0 0119.07 19.07 3 3 0 005.7 0 30.16 30.16 0 0119.07-19.07 3 3 0 000-5.7 30.16 30.16 0 01-19.07-19.07 3 3 0 00-2.83-2.06zM347.44 140.76a17.49 17.49 0 0011.09 11.09 17.47 17.47 0 00-11.09 11.09 17.47 17.47 0 00-11.09-11.09 17.49 17.49 0 0011.09-11.09m0-3a3 3 0 00-2.85 2.05 14.53 14.53 0 01-9.18 9.19 3 3 0 000 5.7 14.51 14.51 0 019.18 9.18 3 3 0 005.7 0 14.51 14.51 0 019.18-9.18 3 3 0 000-5.7 14.53 14.53 0 01-9.18-9.18 3 3 0 00-2.85-2.06zM277.5 102.19H267v-10.5a1.5 1.5 0 00-3 0v10.5h-11.5a1.5 1.5 0 000 3H264v11.5a1.5 1.5 0 103 0v-11.5h10.5a1.5 1.5 0 100-3zM89.5 187.19H79v-10.5a1.5 1.5 0 00-3 0v10.5H64.5a1.5 1.5 0 000 3H76v11.5a1.5 1.5 0 103 0v-11.5h10.5a1.5 1.5 0 100-3zM406.48 190.12l7.78-7.77a1.5 1.5 0 00-2.12-2.12l-7.78 7.77-7.77-7.77a1.5 1.5 0 10-2.12 2.12l7.77 7.77-7.77 7.78a1.49 1.49 0 000 2.12 1.51 1.51 0 002.12 0l7.77-7.78 7.78 7.78a1.51 1.51 0 002.12 0 1.49 1.49 0 000-2.12l-7.78-7.78z" fill="#BD2B2E" fill-rule="nonzero"/><path d="M372.5 393.92H362v-10.5a1.5 1.5 0 00-3 0v10.5h-11.5a1.5 1.5 0 000 3H359v11.5a1.5 1.5 0 103 0v-11.5h10.5a1.5 1.5 0 100-3zM125.49 395.66l7.77-7.78a1.5 1.5 0 00-2.12-2.12l-7.78 7.78-7.77-7.78a1.5 1.5 0 00-2.12 2.12l7.77 7.78-7.77 7.77a1.5 1.5 0 002.12 2.12l7.77-7.77 7.78 7.77a1.5 1.5 0 002.12-2.12l-7.77-7.77z" fill="#BD2B2E" fill-rule="nonzero"/><path d="M35.11 102.35c-2.7-1.52-2-3.26-.7-4.65L39 92.93c1.51-1.57 3-1.75 5.34-.13l20.29 13.78.09-.09-14.42-20c-2-2.8-1.09-4.23.41-5.8L54 77.14c1.5-1.58 2.84-2.51 5.73-.54L79.6 90.21l.08-.1-14-19.81c-1.64-2.27-1.49-3.81 0-5.39l3.93-4.12c1.33-1.39 3-2.11 4.63.53l21 33.81c1.79 3 .92 4.42-.58 6L91 104.92c-1.5 1.57-3 1.75-5.33.22l-19-12.23-.09.09 13 18.53c1.64 2.27 1.49 3.81 0 5.38L75.66 121c-1.5 1.57-3 2.55-6 .86l-34.55-19.51zM97.61 68.23c-5.4-8.7-8.71-22.54 5-31.07 13.71-8.53 24.68.57 30.08 9.27 7.29 11.75 6.65 23.82-5.05 31.08-11.7 7.26-22.74 2.49-30.03-9.28zM122.14 53c-4.69-7.56-9.5-10.82-14.45-7.75-4.95 3.07-4.16 8.83.53 16.39 4.69 7.56 9.25 10.68 14.31 7.54 5.06-3.14 4.23-8.72-.39-16.18zM142.38 21.26a3.47 3.47 0 012.4-4.78L158 12.11c11.85-3.93 19.27-1.47 22.17 7.28a12.73 12.73 0 01-2.87 13.49l12.43 13.48c2 2.17.72 3.4-1 4l-6.44 2.14c-2.12.71-3.54.3-5.42-1.91l-9-10.76-5.53 1.83 4 12.15a3.46 3.46 0 01-2.39 4.78l-4.68 1.55a3.46 3.46 0 01-4.77-2.4l-12.12-36.48zM164 30.82c2.43-.81 5.83-2.54 4.5-6.55s-4.57-3.41-6.94-2.62l-5.29 1.75 3 9 4.73-1.58zM198.81 5.33a3.47 3.47 0 013.44-4.09L214.81.15c14.6-1.26 23.26 5.25 24.54 20.11 1.32 15.24-6.43 24.45-21.09 25.72L206.2 47a3.45 3.45 0 01-4.08-3.43l-3.31-38.24zm19.1 30c7-.6 9.71-5.78 9-13.56-.65-7.59-4.14-11.53-10.71-11l-4.4.38 2.2 24.47 3.91-.29zM254.82 21.09C257 6.34 266.19-.67 278.6 1.13c8.81 1.27 14 5.39 15.58 13 .37 1.93.22 3.84-3.08 3.88l-4.67.1c-3.05.08-3.36-1.39-4.34-3.53a6.12 6.12 0 00-5.15-3.73c-4.88-.7-8.48 3.17-9.76 12-1.44 10 .75 14.47 5.62 15.17a6.82 6.82 0 006.44-2.49c1.49-1.79 2.26-3.1 5-2.06l4.84 1.87c3 1.14 2.61 3 1.59 4.69-5.21 8.24-12.24 9-19.71 7.95-12.15-1.73-18.37-11.43-16.14-26.89zM324.2 16.78a4.59 4.59 0 015.8-1.64l8.28 3.24a4.59 4.59 0 013.14 5.15l-3.72 40.05c-.3 3-2.16 3.08-3.89 2.4l-5.66-2.22c-2-.79-2.75-2.1-2.41-4.92l.86-6.41-11.6-4.52-3.66 5.3c-1.6 2.33-3.08 2.78-5.11 2L301 53.12c-1.73-.67-3.08-2-1.24-4.4l24.44-31.94zm3.8 25.35l2.24-15.89h-.12l-9.21 13.16 7.09 2.73zM370.94 37.71a3.47 3.47 0 015.28-.81l7.48 5.49c1.76 1.28 2.17 2.78 1.15 5.36l-10 25.44.1.08 21.51-17c2.2-1.71 3.75-1.77 5.51-.48l7.33 5.37a3.46 3.46 0 01.81 5.28l-22.69 31c-2 2.68-3.63 2-5.28.81L379 95.87c-1.65-1.21-2.78-2.6-.82-5.28l14.9-20.39-.11-.08-20.38 16.56c-2.16 1.75-3.71 1.81-5.46.52l-3.05-2.2c-1.75-1.28-2.17-2.78-1.15-5.36l9.65-24.43-.1-.07-14.94 20.36c-2 2.68-3.63 2-5.28.81l-3.2-2.31c-1.65-1.21-2.78-2.59-.81-5.27l22.69-31.02zM426.71 83.4a3.47 3.47 0 015.32.53l9 11c7.94 9.71 7.84 17.57.06 23.93-8.18 6.68-16.55 4-23.44-4.4L414 110l-9.06 7.42c-2.58 2.1-4 1-5.32-.54l-3.17-3.88c-1.29-1.59-2-3.21.54-5.31l29.72-24.29zm-1.21 25.21c1.87 2.28 4.6 3.19 7.72.64 2.42-2 2.39-4.86.33-7.38l-3.89-4.76-8.13 6.64 3.97 4.86zM161 461.88c.91-3.2 2.69-3.15 4.66-2.59l4.8 1.37c2 .56 3.51 1.47 2.6 4.67l-6.93 24.25c-1.35 4.73.06 7.93 4.43 9.18s7.76-.58 9.11-5.32l6.93-24.24c.91-3.2 2.69-3.16 4.66-2.6L196 468c2 .56 3.51 1.46 2.6 4.66l-6.26 21.91c-3.53 12.37-11.2 17.77-24.8 13.88-13.6-3.89-16.34-12.25-12.8-24.62l6.26-21.95zM218 513.16l.22-3.89a3.46 3.46 0 014-3.55l4.41.26a3.45 3.45 0 013.55 4l-.23 3.89a3.45 3.45 0 01-4 3.55l-4.41-.26a3.45 3.45 0 01-3.54-4zM260.9 504.46l4.4-2.14c3.2-1.57 3.51.07 5.18 1.76a7.4 7.4 0 006.7 2c3.29-.49 5.69-2.2 5.29-4.93-1.21-8.16-24.05 1-26.7-16.88-1.12-7.59 5-14 14.54-15.41 7.28-1.08 12.91.22 17.06 5.11 1.26 1.49 1.91 3.27-.92 4.73l-3.24 1.7c-3.24 1.71-3.82.38-5.85-1.07a7 7 0 00-5.35-1.21c-2.54.37-4.48 2.08-4.15 4.3 1.14 7.72 23.37-1.2 25.93 16.09 1.4 9.49-5.32 15.66-16 17.25-7.79 1.15-14-.39-18.17-6.5-1.11-1.66-1.38-3.5 1.28-4.8zM322.6 500.3l-1.36-3.66a3.46 3.46 0 012.22-4.86l4.14-1.54a3.47 3.47 0 014.86 2.23l1.36 3.65a3.47 3.47 0 01-2.22 4.88l-4.14 1.54a3.46 3.46 0 01-4.86-2.24z" fill="#003B63" fill-rule="nonzero"/><path d="M205 406.71c0 1.27-.72 1.91-2.16 1.91h-13.67a2 2 0 01-1.47-.56 1.92 1.92 0 01-.54-1.39 2.72 2.72 0 01.82-1.94l8.21-8.82a14.51 14.51 0 002.22-3 6.2 6.2 0 00.7-2.76 3.38 3.38 0 00-1-2.59 4 4 0 00-2.78-.9 7.67 7.67 0 00-2.86.56 14.33 14.33 0 00-2.79 1.53 4.4 4.4 0 01-.72.41 1.71 1.71 0 01-.72.16 1.32 1.32 0 01-1.06-.57 2.17 2.17 0 01-.45-1.37 2.13 2.13 0 01.2-.94 2.38 2.38 0 01.63-.75 12.32 12.32 0 013.71-2 12.88 12.88 0 014.24-.74 8.93 8.93 0 015.93 1.87 6.28 6.28 0 012.21 5 9.26 9.26 0 01-.94 4.13 18.52 18.52 0 01-3.16 4.3l-6.23 6.62h9.5c1.47 0 2.18.61 2.18 1.84zM218.4 405.61c-1.58-2.22-2.37-5.453-2.37-9.7 0-4.247.79-7.47 2.37-9.67a8.77 8.77 0 0113.76 0c1.58 2.22 2.37 5.443 2.37 9.67s-.79 7.453-2.37 9.68a8.76 8.76 0 01-13.76 0v.02zm10.44-2.56c.753-1.5 1.127-3.88 1.12-7.14-.007-3.26-.38-5.643-1.12-7.15a4 4 0 00-7.12 0c-.75 1.49-1.12 3.86-1.12 7.13s.37 5.64 1.12 7.14a3.94 3.94 0 007.12 0v.02zM264.09 406.71c0 1.27-.72 1.91-2.16 1.91h-13.68a2 2 0 01-1.48-.56 1.92 1.92 0 01-.54-1.39 2.73 2.73 0 01.83-1.94l8.21-8.82a14.42 14.42 0 002.21-3 6.07 6.07 0 00.7-2.76 3.34 3.34 0 00-1-2.59 3.93 3.93 0 00-2.77-.9 7.63 7.63 0 00-2.86.56c-.986.4-1.922.914-2.79 1.53a4.4 4.4 0 01-.72.41 1.71 1.71 0 01-.72.16 1.32 1.32 0 01-1.06-.57 2.17 2.17 0 01-.45-1.37 2.13 2.13 0 01.19-.94 2.68 2.68 0 01.63-.75 12.57 12.57 0 013.71-2 12.94 12.94 0 014.25-.74 8.9 8.9 0 015.92 1.87 6.26 6.26 0 012.22 5 9.4 9.4 0 01-.94 4.13 18.31 18.31 0 01-3.17 4.3l-6.23 6.62h9.51c1.47 0 2.19.61 2.19 1.84zM277.48 405.61c-1.58-2.22-2.373-5.453-2.38-9.7-.007-4.247.787-7.47 2.38-9.67a8.76 8.76 0 0113.75 0c1.587 2.22 2.38 5.443 2.38 9.67s-.793 7.453-2.38 9.68a8.75 8.75 0 01-13.75 0v.02zm10.44-2.56c.74-1.5 1.12-3.88 1.12-7.14s-.38-5.67-1.12-7.15a4 4 0 00-7.13 0c-.74 1.49-1.11 3.86-1.11 7.13s.37 5.64 1.11 7.14a3.95 3.95 0 007.13 0v.02zM131.17 342.2a11.49 11.49 0 01-4-2 2 2 0 01-.83-1.72 2 2 0 01.45-1.32 1.33 1.33 0 011.06-.56 2.88 2.88 0 011.48.51 10.94 10.94 0 003.24 1.62 13.32 13.32 0 003.74.5 7.29 7.29 0 004-.92 3 3 0 001.41-2.68 2.3 2.3 0 00-1.31-2.1 17.3 17.3 0 00-4.38-1.43 25.61 25.61 0 01-5.15-1.58 7.37 7.37 0 01-3-2.3 6 6 0 01-1-3.57 6.67 6.67 0 011.26-4 8.28 8.28 0 013.51-2.76 13.9 13.9 0 0113.44 1.75c.27.212.498.473.67.77.149.311.218.655.2 1a2 2 0 01-.45 1.31 1.35 1.35 0 01-1.06.56 2 2 0 01-.67-.11 4.53 4.53 0 01-.81-.4 12.42 12.42 0 00-2.86-1.6 9.71 9.71 0 00-3.41-.52 6.68 6.68 0 00-3.87 1 3.19 3.19 0 00-1.42 2.75 2.53 2.53 0 001.26 2.27 14.82 14.82 0 004.29 1.48 28.75 28.75 0 015.2 1.6 7.78 7.78 0 013.06 2.25 5.39 5.39 0 011.06 3.42 6.51 6.51 0 01-1.24 3.94 8.14 8.14 0 01-3.49 2.67 13.24 13.24 0 01-5.17.95 18.28 18.28 0 01-5.21-.78zM164.58 342.17a2.27 2.27 0 01-.63-1.68v-19.44h-6.55c-1.44 0-2.16-.63-2.16-1.91 0-1.28.72-1.9 2.16-1.9h17.75c1.44 0 2.16.63 2.16 1.9s-.72 1.91-2.16 1.91h-6.56v19.44a2.27 2.27 0 01-.63 1.68 2.25 2.25 0 01-1.67.63 2.31 2.31 0 01-1.71-.63zM185.44 342.06a2.67 2.67 0 01-.75-1.93 2.63 2.63 0 01.75-1.92 2.73 2.73 0 013.82 0c.5.511.772 1.205.75 1.92a2.67 2.67 0 01-.75 1.93 2.75 2.75 0 01-3.82 0zM220.72 342a2.14 2.14 0 01-.57-1.58v-21.1a2.17 2.17 0 012.3-2.3 2.31 2.31 0 011.71.63c.431.446.66 1.05.63 1.67v19.48h10.12c1.44 0 2.16.64 2.16 1.91s-.72 1.91-2.16 1.91h-12.57a2.23 2.23 0 01-1.62-.62zM251.56 341.36a10.62 10.62 0 01-4.2-4.54 17.06 17.06 0 010-13.81 10.48 10.48 0 014.2-4.51 13.82 13.82 0 0112.87 0 10.47 10.47 0 014.17 4.51 17 17 0 010 13.81 10.68 10.68 0 01-4.2 4.54 13.77 13.77 0 01-12.81 0h-.03zm11.88-4.54c1.3-1.61 2-3.91 2-6.91s-.66-5.3-2-6.9a7.47 7.47 0 00-10.95 0c-1.333 1.6-2 3.9-2 6.9 0 3 .667 5.303 2 6.91a7.42 7.42 0 0010.95 0zM285.2 340.24c-1.8-1.8-2.7-4.427-2.7-7.88v-13a2.27 2.27 0 01.61-1.67 2.49 2.49 0 013.31 0 2.27 2.27 0 01.61 1.67v13.25a7.08 7.08 0 001.55 4.95 5.9 5.9 0 004.54 1.67 5.78 5.78 0 004.5-1.69 7.07 7.07 0 001.55-4.93v-13.25a2.27 2.27 0 01.61-1.67 2.49 2.49 0 013.31 0 2.27 2.27 0 01.61 1.67v13c0 3.427-.9 6.047-2.7 7.86-1.8 1.813-4.427 2.72-7.88 2.72-3.48 0-6.12-.9-7.92-2.7zM317.58 342.18a2.31 2.31 0 01-.63-1.69v-21.13a2.17 2.17 0 012.3-2.3 2.31 2.31 0 011.71.63c.431.446.66 1.05.63 1.67v21.13a2.31 2.31 0 01-.63 1.69 2.25 2.25 0 01-1.71.65 2.2 2.2 0 01-1.67-.65zM338.53 342.2a11.49 11.49 0 01-4-2 2 2 0 01-.83-1.72 2 2 0 01.45-1.32 1.33 1.33 0 011.06-.56 2.94 2.94 0 011.48.51 10.94 10.94 0 003.24 1.62 13.22 13.22 0 003.74.5 7.29 7.29 0 004-.92 3 3 0 001.41-2.68 2.3 2.3 0 00-1.32-2.1 17.05 17.05 0 00-4.37-1.43 25.61 25.61 0 01-5.15-1.58 7.31 7.31 0 01-3-2.3 6 6 0 01-1-3.57 6.6 6.6 0 011.26-4 8.19 8.19 0 013.5-2.76 13.92 13.92 0 0113.45 1.75c.268.214.495.475.67.77a2.23 2.23 0 01-.25 2.27 1.37 1.37 0 01-1.07.56 2 2 0 01-.66-.11 4.22 4.22 0 01-.81-.4 12.26 12.26 0 00-2.87-1.6 9.61 9.61 0 00-3.4-.52 6.68 6.68 0 00-3.87 1 3.16 3.16 0 00-1.42 2.75 2.53 2.53 0 001.26 2.27 14.82 14.82 0 004.29 1.48 29 29 0 015.2 1.6 7.78 7.78 0 013.06 2.25 5.45 5.45 0 011.06 3.42 6.57 6.57 0 01-1.24 3.94 8.2 8.2 0 01-3.49 2.67 13.28 13.28 0 01-5.17.95 18.23 18.23 0 01-5.21-.74z" fill="#BD2B2E" fill-rule="nonzero"/></g></svg>
