<svg xmlns="http://www.w3.org/2000/svg" xmlns:xlink="http://www.w3.org/1999/xlink" viewBox="0 0 160 173">
  <defs>
    <path id="a" d="M0 .316h44.706V113.27H0z"/>
    <path id="c" d="M.09.002h45.678v110.005H.091z"/>
    <path id="e" d="M.324.097h4.134v3.967H.324z"/>
  </defs>
  <g fill="none" fill-rule="evenodd">
    <g fill="#003B63">
      <path d="M13.059 110.015a.503.503 0 00.44.738c.177 0 .35-.096.44-.265 7.376-13.87 17.606-26.582 28.803-35.794C55.21 64.44 68.212 59.013 80.346 59.003h.035c12.052 0 24.998 5.379 37.437 15.556 11.14 9.115 21.374 21.705 28.815 35.454a.497.497 0 00.676.2.502.502 0 00.2-.68c-7.502-13.86-17.822-26.557-29.062-35.752C105.827 63.456 92.666 58 80.381 58h-.035c-12.367.01-25.589 5.515-38.235 15.918-11.298 9.294-21.615 22.113-29.052 36.097"/>
      <path d="M141.17 120.911a.497.497 0 00.65.278.505.505 0 00.276-.656 86.226 86.226 0 00-3.052-6.764c-7.836-15.52-15.6-27.147-23.737-35.544-10.801-11.148-22.577-16.8-35-16.8-28.871 0-47.252 29.836-58.566 52.28a86.477 86.477 0 00-3.269 7.32.505.505 0 00.464.69.5.5 0 00.465-.32 85.42 85.42 0 013.23-7.234c11.195-22.206 29.354-51.728 57.676-51.728 12.144 0 23.68 5.55 34.286 16.496 8.065 8.324 15.772 19.87 23.56 35.298a85.226 85.226 0 013.017 6.684"/>
    </g>
    <g transform="translate(0 43)">
      <mask id="b" fill="#fff">
        <use xlink:href="#a"/>
      </mask>
      <path fill="#bd2b2e" d="M44.431 112.33a79.173 79.173 0 01-31.377-28.397A77.735 77.735 0 011.002 42.298 77.768 77.768 0 0112.8 1.074a.495.495 0 00-.162-.684.504.504 0 00-.69.161A78.756 78.756 0 000 42.298 78.72 78.72 0 0012.205 84.46a80.167 80.167 0 0031.774 28.755.5.5 0 00.673-.219.495.495 0 00-.22-.668" mask="url(#b)"/>
    </g>
    <g transform="translate(113.898 47.08)">
      <mask id="d" fill="#fff">
        <use xlink:href="#c"/>
      </mask>
      <path fill="#bd2b2e" d="M35.981.26a.503.503 0 00-.68-.197.496.496 0 00-.2.675c6.323 11.481 9.664 24.508 9.664 37.672 0 14.996-4.266 29.577-12.337 42.167A79.225 79.225 0 01.372 109.062a.496.496 0 00.22.945c.075 0 .15-.017.22-.05a80.23 80.23 0 0032.461-28.845c8.174-12.75 12.495-27.516 12.495-42.702 0-13.33-3.384-26.523-9.787-38.15" mask="url(#d)"/>
    </g>
    <g fill="#bd2b2e">
      <path d="M80.152 88.65a5.895 5.895 0 00-3.746-3.735 5.896 5.896 0 003.746-3.735 5.896 5.896 0 003.745 3.735 5.895 5.895 0 00-3.745 3.735m4.064-2.775a1.01 1.01 0 000-1.919 4.903 4.903 0 01-3.102-3.094 1.014 1.014 0 00-1.925 0 4.902 4.902 0 01-3.102 3.094 1.01 1.01 0 000 1.919 4.903 4.903 0 013.102 3.093 1.014 1.014 0 001.925 0 4.903 4.903 0 013.102-3.093M53.635 35.086a11.233 11.233 0 007.138 7.118 11.232 11.232 0 00-7.138 7.117 11.232 11.232 0 00-7.138-7.117 11.233 11.233 0 007.138-7.118m-8.158 7.118c0 .438.282.828.7.966a10.258 10.258 0 016.49 6.471 1.021 1.021 0 001.937 0 10.258 10.258 0 016.49-6.471 1.018 1.018 0 000-1.933 10.258 10.258 0 01-6.49-6.471 1.021 1.021 0 00-1.938 0 10.26 10.26 0 01-6.49 6.471c-.417.138-.7.528-.7.967M115.507 46.604a5.896 5.896 0 003.745 3.735 5.895 5.895 0 00-3.745 3.735 5.895 5.895 0 00-3.746-3.735 5.896 5.896 0 003.746-3.735m-4.065 2.776a1.01 1.01 0 000 1.919 4.903 4.903 0 013.102 3.093 1.014 1.014 0 001.925 0 4.903 4.903 0 013.102-3.093 1.011 1.011 0 000-1.92 4.903 4.903 0 01-3.102-3.093 1.014 1.014 0 00-1.925 0 4.902 4.902 0 01-3.102 3.094M84.061 35.085h3.91v3.898a.51.51 0 001.02 0v-3.898h3.569a.51.51 0 100-1.017h-3.57v-3.56a.51.51 0 00-1.02 0v3.56h-3.909a.51.51 0 100 1.017M25.93 58.475a.51.51 0 00-.51.508v3.56h-3.91a.51.51 0 100 1.016h3.91v3.899a.51.51 0 001.02 0v-3.899h3.569a.51.51 0 100-1.017h-3.57v-3.559a.51.51 0 00-.51-.508M137.799 59.975a.494.494 0 00-.698 0l-2.557 2.55-2.557-2.55a.494.494 0 00-.698 0 .49.49 0 000 .695l2.557 2.55-2.557 2.55a.49.49 0 00.349.84.492.492 0 00.349-.144l2.557-2.55 2.557 2.55a.492.492 0 00.698-.696l-2.557-2.55 2.557-2.55a.49.49 0 000-.695M119.756 135.763a.51.51 0 00.51-.509v-3.898h3.57a.51.51 0 100-1.017h-3.57v-3.56a.51.51 0 00-1.02 0v3.56h-3.91a.51.51 0 100 1.017h3.91v3.898c0 .28.228.509.51.509M44.652 127.771a.494.494 0 00-.698 0l-2.557 2.55-2.557-2.55a.494.494 0 00-.698 0 .49.49 0 000 .696l2.557 2.55-2.557 2.55a.49.49 0 00.35.84.492.492 0 00.348-.144l2.557-2.55 2.557 2.55a.492.492 0 00.698-.696l-2.557-2.55 2.557-2.55a.49.49 0 000-.696"/>
    </g>
    <path fill="#003B63" d="M11.62 33.853l11.544 6.492c.995.562 1.485.235 1.987-.288l1.311-1.368c.501-.523.55-1.035.003-1.789l-4.345-6.15.03-.03 6.35 4.059c.782.507 1.279.45 1.78-.073l1.209-1.26c.5-.523.791-1.01.194-1.989L24.68 20.23c-.55-.874-1.102-.635-1.544-.174l-1.312 1.368c-.502.523-.55 1.035-.003 1.789l4.672 6.578-.03.03-6.617-4.518c-.967-.654-1.413-.342-1.914.18l-1.12 1.17c-.501.522-.807.995-.136 1.926l4.81 6.65-.029.03-6.77-4.574c-.783-.538-1.28-.481-1.78.041l-1.52 1.584c-.441.461-.67 1.038.234 1.543M36.276 15.316c1.656-1.013 3.267.064 4.837 2.56 1.547 2.458 1.825 4.302.132 5.338-1.693 1.035-3.245-.029-4.792-2.488-1.57-2.495-1.833-4.397-.177-5.41m6.697 10.644c3.913-2.394 4.13-6.379 1.69-10.256-1.807-2.872-5.464-5.88-10.07-3.062-4.605 2.817-3.496 7.384-1.69 10.256 2.44 3.876 6.156 5.456 10.07 3.062M54.11 7.227c.793-.266 1.885-.45 2.324.886.445 1.356-.694 1.943-1.508 2.216l-1.587.532-.999-3.041 1.77-.593zm-2.361 12.196c.283.862.947 1.028 1.598.81l1.566-.526c.651-.217 1.086-.75.802-1.614l-1.35-4.109 1.852-.62 3.024 3.638c.63.748 1.104.885 1.815.646l2.157-.722c.57-.191.997-.608.327-1.341l-4.163-4.558c1.107-1.17 1.563-2.736.963-4.565-.972-2.959-3.459-3.79-7.425-2.461L48.5 5.481c-.65.217-1.085.751-.802 1.614l4.05 12.328zM72.406 3.563c2.188-.188 3.35 1.116 3.568 3.629.223 2.576-.676 4.291-3.012 4.492l-1.317.113-.705-8.109 1.466-.125zm-4.705 10.87c.078.887.682 1.197 1.362 1.138l4.014-.344c4.885-.42 7.466-3.471 7.027-8.518-.427-4.92-3.31-7.076-8.174-6.658l-4.184.36c-.68.057-1.222.466-1.146 1.352l1.101 12.67zM89.855 16.13c2.537.355 4.925.095 6.69-2.604.349-.566.482-1.162-.537-1.537l-1.643-.611c-.936-.343-1.198.087-1.703.673-.66.734-1.434.923-2.186.817-1.656-.23-2.399-1.712-1.91-4.971C89 4.99 90.223 3.72 91.878 3.952c.774.109 1.403.451 1.749 1.22.333.703.437 1.184 1.472 1.16l1.585-.034c1.122-.012 1.172-.641 1.047-1.273-.526-2.49-2.3-3.839-5.288-4.257-4.214-.589-7.346 1.707-8.071 6.543-.76 5.065 1.354 8.242 5.482 8.82M109.592 8.504l.04.016-.748 5.214-2.37-.91 3.078-4.32zm-9.748 8.836l1.772.681c.677.26 1.173.112 1.707-.652l1.222-1.74 3.864 1.485-.286 2.1c-.116.924.125 1.355.803 1.615l1.892.728c.577.222 1.2.213 1.3-.786l1.244-13.14c.089-.913-.372-1.428-1.05-1.689l-2.768-1.063c-.677-.26-1.371-.189-1.938.54l-8.174 10.477c-.618.8-.166 1.222.412 1.444zM116.018 24.788l1.055.778c.544.402 1.09.621 1.738-.27l4.923-6.77.034.025-3.179 8.11c-.336.859-.2 1.355.378 1.782l1.004.74c.577.427 1.088.41 1.798-.173l6.716-5.498.034.025-4.923 6.77c-.648.892-.276 1.35.269 1.752l1.054.78c.544.401 1.09.62 1.739-.27l7.477-10.285c.523-.72.276-1.35-.268-1.752l-2.415-1.783c-.578-.428-1.088-.41-1.816.16l-7.085 5.647-.034-.025 3.293-8.448c.336-.858.2-1.354-.378-1.78l-2.466-1.821c-.544-.403-1.215-.45-1.739.27l-7.477 10.283c-.648.892-.276 1.35.268 1.753M142.95 32.041l1.274 1.6c.677.85.687 1.814-.108 2.482-1.023.857-1.918.551-2.529-.215l-1.3-1.633 2.663-2.234zm-10.883 5.35l1.022 1.282c.425.534.897.888 1.742.18l2.97-2.493 1.223 1.532c2.257 2.833 5.001 3.727 7.68 1.48 2.55-2.14 2.584-4.782-.018-8.047l-2.96-3.715c-.425-.533-1.06-.752-1.742-.18l-9.742 8.174c-.845.708-.6 1.253-.175 1.787zM65.655 154.712l-1.552-.452c-.645-.188-1.23-.203-1.53.867l-2.268 8.104c-.443 1.584-1.573 2.19-2.983 1.778-1.432-.417-1.895-1.487-1.452-3.07l2.269-8.105c.3-1.07-.205-1.372-.85-1.56l-1.572-.458c-.645-.188-1.23-.203-1.53.867l-2.05 7.322c-1.156 4.135-.26 6.932 4.194 8.23 4.455 1.3 6.966-.505 8.124-4.64l2.05-7.322c.3-1.07-.205-1.373-.85-1.56M89.003 159.658c-.11-.725.544-1.286 1.395-1.408.68-.098 1.287.026 1.8.397.68.473.877.91 1.966.351l1.09-.558c.95-.476.73-1.058.308-1.548-1.395-1.598-3.287-2.025-5.733-1.672-3.192.46-5.264 2.558-4.886 5.044.89 5.863 8.564 2.852 8.97 5.524.136.89-.67 1.452-1.777 1.61-.957.139-1.712-.112-2.25-.649-.563-.554-.666-1.089-1.74-.575l-1.481.701c-.892.425-.801 1.025-.436 1.566 1.412 1.998 3.49 2.503 6.106 2.126 3.596-.518 5.855-2.537 5.383-5.645-.86-5.655-8.33-2.737-8.715-5.264M110.736 162.676c-.337-.793-1.054-.925-1.744-.7l-1.486.485c-.69.225-1.135.735-.798 1.53l.489 1.152c.336.794 1.054.925 1.743.7l1.486-.485c.69-.225 1.135-.736.798-1.53l-.488-1.152z"/>
    <g transform="translate(72.695 167.296)">
      <mask id="f" fill="#fff">
        <use xlink:href="#e"/>
      </mask>
      <path fill="#003B63" d="M3.252.188L1.758.1C1.064.06.458.393.405 1.302l-.078 1.32c-.053.908.51 1.31 1.203 1.351l1.495.088c.693.04 1.299-.294 1.352-1.202l.078-1.32C4.508.63 3.945.229 3.252.188" mask="url(#f)"/>
    </g>
    <g fill="#bd2b2e">
      <path d="M67.263 134.539h-3.206l2.1-2.32c.502-.554.859-1.057 1.07-1.506.21-.45.314-.931.314-1.444 0-.739-.248-1.328-.746-1.765-.498-.437-1.164-.655-1.997-.655-.478 0-.956.086-1.433.258a4.176 4.176 0 00-1.25.7.843.843 0 00-.213.265.754.754 0 00-.067.328c0 .184.05.344.152.479.101.134.22.201.358.201.08 0 .162-.019.243-.056.08-.038.162-.087.243-.145.316-.227.63-.406.94-.536.312-.13.634-.196.966-.196.405 0 .716.106.935.316.219.21.328.512.328.907 0 .32-.08.641-.237.965-.158.323-.407.679-.747 1.065l-2.768 3.088a.977.977 0 00-.28.681c0 .194.061.355.183.486.121.13.287.195.497.195h4.615c.485 0 .728-.223.728-.668 0-.429-.243-.643-.728-.643M75.674 133.815c-.247.518-.643.778-1.185.778-.543 0-.939-.26-1.186-.778-.248-.52-.371-1.343-.371-2.472 0-1.128.123-1.95.37-2.465.248-.514.644-.772 1.187-.772.542 0 .938.255 1.185.766.247.51.372 1.334.372 2.471 0 1.13-.125 1.953-.372 2.472m-1.185-6.966c-.999 0-1.761.384-2.288 1.152-.527.767-.79 1.882-.79 3.342 0 1.47.263 2.588.79 3.355.527.768 1.29 1.152 2.288 1.152.998 0 1.76-.386 2.287-1.158.527-.772.79-1.888.79-3.349 0-1.46-.263-2.575-.79-3.342-.527-.768-1.29-1.152-2.287-1.152M86.263 134.539h-3.206l2.1-2.32c.502-.554.859-1.057 1.07-1.506.21-.45.314-.931.314-1.444 0-.739-.248-1.328-.746-1.765-.498-.437-1.164-.655-1.997-.655-.478 0-.956.086-1.433.258a4.176 4.176 0 00-1.25.7.843.843 0 00-.213.265.754.754 0 00-.067.328c0 .184.05.344.152.479.101.134.22.201.358.201.08 0 .162-.019.243-.056.08-.038.162-.087.243-.145.316-.227.63-.406.94-.536.312-.13.634-.196.966-.196.405 0 .716.106.935.316.219.21.328.512.328.907 0 .32-.08.641-.237.965-.158.323-.407.679-.747 1.065l-2.768 3.088a.977.977 0 00-.28.681c0 .194.061.355.183.486.121.13.287.195.497.195h4.615c.485 0 .728-.223.728-.668 0-.429-.243-.643-.728-.643M94.674 133.815c-.247.518-.643.778-1.185.778-.543 0-.939-.26-1.186-.778-.248-.52-.371-1.343-.371-2.472 0-1.128.123-1.95.37-2.465.248-.514.644-.772 1.187-.772.542 0 .938.255 1.185.766.247.51.372 1.334.372 2.471 0 1.13-.125 1.953-.372 2.472m-1.185-6.966c-.999 0-1.761.384-2.288 1.152-.527.767-.79 1.882-.79 3.342 0 1.47.263 2.588.79 3.355.527.768 1.29 1.152 2.288 1.152.998 0 1.76-.386 2.287-1.158.527-.772.79-1.888.79-3.349 0-1.46-.263-2.575-.79-3.342-.527-.768-1.29-1.152-2.287-1.152"/>
      <path fill-rule="nonzero" d="M56.07 113.117c.884 0 1.653-.19 2.308-.572a3.826 3.826 0 001.514-1.638c.355-.71.533-1.543.533-2.496 0-.953-.176-1.783-.527-2.49a3.794 3.794 0 00-1.508-1.631c-.654-.381-1.427-.572-2.32-.572-.893 0-1.668.19-2.327.572a3.782 3.782 0 00-1.515 1.631c-.35.707-.526 1.537-.526 2.49 0 .953.178 1.785.533 2.496.355.71.86 1.257 1.514 1.638.655.381 1.428.572 2.321.572zm0-1.339c-.85 0-1.51-.29-1.983-.871-.472-.58-.708-1.413-.708-2.496s.236-1.913.708-2.49c.473-.576 1.134-.864 1.983-.864.84 0 1.497.288 1.97.865.472.576.708 1.406.708 2.489s-.236 1.915-.708 2.496c-.473.58-1.13.871-1.97.871zM70.657 113.078a.751.751 0 00.572-.234c.147-.156.221-.36.221-.611v-7.631c0-.251-.072-.453-.215-.605-.142-.151-.335-.227-.578-.227a.741.741 0 00-.565.228c-.143.151-.215.353-.215.604v5.616l-4.732-6.149c-.147-.2-.355-.299-.624-.299a.778.778 0 00-.585.228c-.147.151-.221.353-.221.604v7.631c0 .251.07.455.208.611.139.156.33.234.572.234.243 0 .433-.078.572-.234.139-.156.208-.36.208-.611v-5.629l4.745 6.175c.147.2.36.299.637.299zM80.356 113c.52 0 .78-.23.78-.689 0-.46-.26-.689-.78-.689h-3.653v-7.02c0-.251-.076-.453-.228-.604-.151-.152-.357-.228-.617-.228-.251 0-.453.076-.605.228-.151.151-.227.353-.227.604v7.618c0 .243.07.433.208.572.139.139.334.208.585.208h4.537zM84.673 113.078c.26 0 .466-.078.617-.234a.84.84 0 00.228-.611v-7.631c0-.251-.076-.453-.227-.605-.152-.151-.358-.227-.618-.227-.251 0-.453.076-.605.228-.151.151-.227.353-.227.604v7.631a.84.84 0 00.228.611c.151.156.353.234.604.234zM96.036 113.078a.751.751 0 00.572-.234c.147-.156.221-.36.221-.611v-7.631c0-.251-.071-.453-.214-.605-.143-.151-.336-.227-.579-.227a.741.741 0 00-.566.228c-.142.151-.214.353-.214.604v5.616l-4.732-6.149c-.147-.2-.355-.299-.624-.299a.778.778 0 00-.585.228c-.147.151-.221.353-.221.604v7.631c0 .251.07.455.208.611.139.156.33.234.572.234.243 0 .433-.078.572-.234.139-.156.208-.36.208-.611v-5.629l4.745 6.175c.147.2.36.299.637.299zM105.904 113c.251 0 .446-.056.585-.169.139-.113.208-.273.208-.481 0-.217-.07-.383-.208-.5-.139-.117-.334-.176-.585-.176h-3.861v-2.678h3.601c.251 0 .446-.056.585-.169.139-.113.208-.273.208-.481 0-.217-.07-.381-.208-.494-.139-.113-.334-.169-.585-.169h-3.601v-2.522h3.861c.251 0 .446-.058.585-.175.139-.117.208-.284.208-.501 0-.208-.07-.368-.208-.481-.139-.113-.334-.169-.585-.169h-4.693c-.251 0-.448.07-.591.208-.143.139-.215.334-.215.585v7.579c0 .251.072.446.215.585.143.139.34.208.591.208h4.693z"/>
    </g>
  </g>
</svg>
