<svg xmlns="http://www.w3.org/2000/svg" xmlns:xlink="http://www.w3.org/1999/xlink" width="166" height="180">
  <defs>
    <path id="a" d="M0 .3298h46.3827v117.8646H0z"/>
    <path id="c" d="M.0941.0016h47.3905v114.7882H.0941z"/>
    <path id="e" d="M.3356.1014h4.2842v4.1515H.3356z"/>
  </defs>
  <g fill="none" fill-rule="evenodd">
    <g fill="#003B63">
      <path d="M13.0612 114.6407a.517.517 0 0 0 .4558.7607.5168.5168 0 0 0 .4565-.2733c7.6498-14.3035 18.2581-27.4127 29.8705-36.9121 12.9281-10.5756 26.413-16.1716 38.9967-16.182h.0355c12.4989 0 25.9238 5.5471 38.824 16.0424 11.553 9.3995 22.1653 22.3836 29.882 36.5616a.5168.5168 0 0 0 .7012.2071.5167.5167 0 0 0 .2072-.701c-7.7794-14.2935-18.4822-27.3876-30.1377-36.8698C109.2655 66.6264 95.6164 61 82.8762 61H82.84c-12.825.0107-26.536 5.687-39.651 16.4156-11.7159 9.584-22.4153 22.8041-30.1278 37.2251"/>
      <path d="M145.917 125.877a.5167.5167 0 0 0 .6742.2868c.2652-.1074.3933-.4102.286-.6766-.9585-2.379-2.0232-4.7259-3.1649-6.975-8.1259-16.0053-16.1779-27.9954-24.6162-36.6554-11.2013-11.4957-23.413-17.3242-36.2964-17.3242-29.9401 0-49.0018 30.7683-60.7354 53.9124-1.2284 2.4224-2.3684 4.9625-3.3892 7.5497-.1053.2664.0248.5685.2903.6742a.5148.5148 0 0 0 .191.0367.5181.5181 0 0 0 .4815-.3288c1.0088-2.5567 2.1357-5.067 3.3495-7.4606 11.61-22.9 30.4415-53.3443 59.8123-53.3443 12.594 0 24.5572 5.7232 35.5558 17.0114 8.3641 8.5838 16.3564 20.4907 24.4336 36.4008 1.1283 2.2224 2.1806 4.5415 3.1279 6.8928"/>
    </g>
    <g transform="translate(0 45)">
      <mask id="b" fill="#fff">
        <use xlink:href="#a"/>
      </mask>
      <path fill="#EE383B" d="M46.0976 117.2133a82.3112 82.3112 0 0 1-32.5538-29.6305c-8.1803-13-12.504-28.0233-12.504-43.4459 0-15.2388 4.2326-30.1135 12.24-43.0157a.5183.5183 0 0 0-.1684-.714.5215.5215 0 0 0-.7157.1682C4.2864 13.6421-.0001 28.7054-.0001 44.1369c0 15.6178 4.379 30.8314 12.6632 43.9965a83.345 83.345 0 0 0 32.965 30.005.5203.5203 0 0 0 .6984-.2283.518.518 0 0 0-.229-.6968" mask="url(#b)"/>
    </g>
    <g transform="translate(118.1695 49.257)">
      <mask id="d" fill="#fff">
        <use xlink:href="#c"/>
      </mask>
      <path fill="#EE383B" d="M37.3307.272c-.1376-.2525-.4547-.3439-.7057-.2068a.519.519 0 0 0-.2069.7049c6.559 11.9803 10.026 25.5732 10.026 39.3094 0 15.6487-4.4263 30.8636-12.8005 44.0005-8.152 12.789-19.6524 23.067-33.2581 29.7238a.5188.5188 0 0 0-.2382.6949.5193.5193 0 0 0 .4673.2911.525.525 0 0 0 .2287-.053c13.7773-6.7408 25.423-17.1487 33.6779-30.0987 8.4805-13.3038 12.9634-28.7122 12.9634-44.5586 0-13.91-3.5113-27.6753-10.1539-39.8076" mask="url(#d)"/>
    </g>
    <g fill="#EE383B">
      <path d="M83.1738 92.417c-.6068-1.8484-2.0435-3.2985-3.8739-3.9112 1.8304-.6127 3.267-2.0632 3.874-3.9116.6068 1.8484 2.0435 3.2989 3.8739 3.9116-1.8304.6127-3.267 2.0628-3.874 3.9112m4.2038-2.9066c.429-.1436.7183-.5485.7183-1.0046 0-.4561-.2893-.861-.7183-1.0046-1.509-.5048-2.7088-1.7161-3.2087-3.2396-.1422-.4332-.5433-.7256-.995-.7256-.4518 0-.8525.2924-.995.7252-.5 1.5239-1.6998 2.7352-3.2088 3.24-.429.1435-.7183.5485-.7183 1.0046 0 .456.2893.861.7183 1.0046 1.509.5048 2.7088 1.716 3.2087 3.2396.1426.4331.5433.7252.995.7252.4518 0 .8529-.292.995-.7252.5-1.5235 1.6998-2.7348 3.2088-3.2396M55.751 36.3256c1.1564 3.5224 3.8931 6.286 7.3822 7.4538-3.489 1.1675-6.2258 3.931-7.3821 7.453-1.1563-3.522-3.8934-6.2855-7.382-7.453 3.4886-1.1679 6.2257-3.9314 7.382-7.4538m-8.4378 7.4538c0 .459.2917.867.7235 1.0115 3.1565 1.0567 5.6659 3.59 6.712 6.777.1437.436.5473.7305 1.0023.7305.455 0 .8586-.2946 1.0022-.7305 1.0462-3.187 3.5552-5.7203 6.712-6.777.4318-.1446.7236-.5525.7236-1.0115 0-.4598-.2918-.8677-.7235-1.012-3.1569-1.0566-5.666-3.5902-6.7121-6.7769-.1436-.4363-.5472-.7308-1.0022-.7308-.455 0-.8586.2945-1.0022.7308-1.0462 3.1867-3.5556 5.7203-6.712 6.777-.4319.1442-.7236.5521-.7236 1.0119M119.7375 48.387c.6069 1.8484 2.0435 3.2988 3.874 3.9115-1.8305.6128-3.2671 2.0629-3.874 3.9113-.6068-1.8484-2.0435-3.2985-3.8739-3.9113 1.8304-.6127 3.267-2.0631 3.874-3.9115m-4.2038 2.907c-.429.1431-.7183.5484-.7183 1.0045 0 .4561.2893.8607.7183 1.0047 1.509.5047 2.7087 1.716 3.2087 3.2395.1425.4332.5433.7253.995.7253.4518 0 .8529-.292.995-.7253.5-1.5234 1.6998-2.7348 3.2087-3.2395.429-.144.7184-.5486.7184-1.0047 0-.456-.2893-.8614-.7184-1.0046-1.509-.5047-2.7087-1.716-3.2086-3.2396-.1422-.4331-.5433-.7256-.995-.7256-.4518 0-.8526.2925-.9951.7253-.5 1.5238-1.6997 2.7352-3.2087 3.24M87.217 36.3246h4.043v4.0822c0 .2939.2363.5324.5274.5324.2911 0 .5274-.2385.5274-.5324v-4.0822h3.6915c.2911 0 .5274-.2385.5274-.5325 0-.2939-.2363-.5324-.5274-.5324h-3.6915v-3.7272c0-.294-.2363-.5325-.5274-.5325-.291 0-.5274.2385-.5274.5325v3.7272h-4.043c-.2912 0-.5274.2385-.5274.5324 0 .294.2362.5325.5273.5325M27.0978 60.8177c-.291 0-.5273.2386-.5273.5325v3.7272h-4.0431c-.2911 0-.5274.2385-.5274.5324 0 .294.2363.5325.5274.5325h4.043v4.0822c0 .294.2363.5325.5274.5325.2911 0 .5274-.2386.5274-.5325v-4.0822h3.6915c.2911 0 .5274-.2385.5274-.5325 0-.2939-.2363-.5324-.5274-.5324h-3.6915v-3.7272c0-.294-.2363-.5325-.5274-.5325M142.7919 62.3886a.5065.5065 0 0 0-.7215 0l-2.6449 2.6701-2.6445-2.6701a.5065.5065 0 0 0-.7216 0 .5185.5185 0 0 0 0 .7285l2.6446 2.6705-2.6446 2.6702a.5185.5185 0 0 0 0 .7285.5062.5062 0 0 0 .361.1508.506.506 0 0 0 .3606-.1508l2.6445-2.6702 2.6449 2.6702a.506.506 0 0 0 .3606.1508.5062.5062 0 0 0 .3609-.1508.5185.5185 0 0 0 0-.7285l-2.6445-2.6702 2.6445-2.6705a.5185.5185 0 0 0 0-.7285M124.1322 141.7515c.2911 0 .5274-.2385.5274-.5324v-4.0822h3.6915c.291 0 .5273-.2386.5273-.5325 0-.2939-.2362-.5324-.5273-.5324h-3.6915v-3.7273c0-.2939-.2363-.5324-.5274-.5324-.2911 0-.5274.2385-.5274.5324v3.7273h-4.043c-.2912 0-.5274.2385-.5274.5324 0 .294.2362.5325.5273.5325h4.0431v4.0822c0 .2939.2363.5324.5274.5324M46.4607 133.3831a.5066.5066 0 0 0-.7216 0l-2.6448 2.67-2.6446-2.67a.5066.5066 0 0 0-.7215 0 .5184.5184 0 0 0 0 .7285l2.6445 2.6704-2.6445 2.6704a.5184.5184 0 0 0 0 .7285.5062.5062 0 0 0 .361.1507.506.506 0 0 0 .3605-.1507l2.6446-2.6704 2.6448 2.6704a.506.506 0 0 0 .3606.1507.5062.5062 0 0 0 .361-.1507.5184.5184 0 0 0 0-.7285l-2.6446-2.6704 2.6446-2.6704a.5184.5184 0 0 0 0-.7285"/>
    </g>
    <path fill="#003B63" d="M12.6433 35.4271l11.961 6.794c1.031.5885 1.5396.2463 2.059-.301l1.3591-1.4317c.5194-.5473.5695-1.083.0032-1.8717l-4.5022-6.4361.0308-.0323 6.5795 4.2478c.8104.5313 1.3256.4719 1.845-.0754l1.2523-1.3192c.5193-.5472.8201-1.0576.2016-2.0809L26.1757 21.171c-.5694-.9144-1.1424-.665-1.6005-.1824l-1.3595 1.4322c-.5194.5472-.5691 1.083-.0031 1.8717l4.8417 6.8843-.0305.032-6.8571-4.7288c-1.002-.6841-1.464-.3582-1.9833.1887l-1.1607 1.223c-.5193.5469-.836 1.042-.1407 2.0162l4.9845 6.9597-.0305.032-7.0151-4.7878c-.8115-.5629-1.3264-.5035-1.8457.0438l-1.5732 1.6573c-.4581.4826-.6943 1.0857.2413 1.6142M38.192 16.0283c1.7163-1.06 3.3857.0674 5.012 2.6786 1.6032 2.5732 1.8907 4.5027.137 5.5865-1.7547 1.0836-3.3627-.03-4.9658-2.6033-1.6264-2.6112-1.8994-4.6014-.1832-5.6618m6.9391 11.1389c4.0554-2.5052 4.2792-6.6753 1.7516-10.7327-1.8726-3.0054-5.6623-6.153-10.434-3.205-4.7726 2.9484-3.6238 7.7277-1.7515 10.733 2.5278 4.0571 6.3782 5.7102 10.434 3.2047M56.6718 7.563c.822-.2783 1.9533-.4702 2.4079.9273.4619 1.4194-.719 2.0335-1.5622 2.3192l-1.6442.5564-1.0354-3.1821 1.834-.6209zm-2.4467 12.763c.2935.9029.9813 1.076 1.6562.8473l1.6226-.5493c.675-.228 1.1254-.7862.8315-1.6895l-1.3988-4.3 1.9182-.6496 3.1338 3.8084c.6524.7819 1.1438.926 1.8815.676l2.2347-.756c.5903-.2 1.0327-.6365.3387-1.4039l-4.3133-4.77c1.1469-1.2237 1.6192-2.8633.9973-4.7772-1.0073-3.0961-3.5839-3.9665-7.6942-2.575l-4.5742 1.5482c-.6746.228-1.1247.7865-.831 1.6891l4.197 12.9014zM75.6309 3.7283c2.2669-.1965 3.4708 1.1682 3.6968 3.7978.232 2.6959-.6996 4.4913-3.1211 4.701l-1.3644.1185-.73-8.4856 1.5187-.1317zm-4.8752 11.3762c.08.928.7065 1.252 1.411 1.191l4.1596-.3607c5.0623-.439 7.7365-3.6322 7.282-8.9136-.4432-5.1487-3.4312-7.4054-8.471-6.968l-4.3357.376c-.7045.061-1.266.4882-1.1866 1.4163l1.1407 13.259zM93.712 16.8803c2.6293.371 5.103.0994 6.9328-2.7247.3609-.5926.499-1.216-.5572-1.609l-1.702-.6396c-.9701-.3588-1.2417.0908-1.7647.7047-.683.7682-1.4857.9654-2.2655.8553-1.7155-.2421-2.4858-1.7926-1.9796-5.2028.4513-3.0408 1.7182-4.37 3.4336-4.128.8016.1132 1.4538.4716 1.8122 1.2761.3457.736.4527 1.2394 1.5255 1.2134l1.643-.0343c1.1617-.0134 1.2138-.6715 1.0847-1.333-.5455-2.605-2.383-4.0173-5.4797-4.4548-4.3665-.6163-7.6123 1.7863-8.3636 6.8475-.7872 5.3001 1.403 8.6253 5.6805 9.2292M114.1637 8.9l.0412.016-.7743 5.4565-2.4558-.953L114.1637 8.9zm-10.1009 9.2462l1.8366.713c.7016.2723 1.2151.1174 1.7688-.6824l1.2663-1.8208 4.004 1.5537-.2967 2.1974c-.1202.968.1298 1.4187.832 1.691l1.9607.761c.5984.2324 1.2445.2235 1.3477-.8218l1.2885-13.7512c.092-.9554-.3854-1.495-1.0873-1.7672l-2.8686-1.1133c-.7019-.2722-1.4214-.1974-2.0084.5657l-8.4706 10.9641c-.6402.8373-.1714 1.2788.427 1.5108zM120.823 25.9405l1.0928.8149c.5643.4207 1.1304.65 1.8019-.2829l5.1006-7.0847.0351.0261-3.2936 8.4881c-.3486.8979-.2073 1.4167.3912 1.8635l1.0402.7752c.5988.4469 1.1276.4278 1.8636-.181l6.9594-5.7542.0356.0264-5.1013 7.085c-.6715.933-.2861 1.4132.2782 1.8337l1.0928.8151c.5636.4205 1.1296.6498 1.8014-.2828l7.748-10.762c.5422-.7533.2858-1.4132-.2781-1.8336l-2.5024-1.8666c-.5988-.4472-1.1276-.4278-1.8814.1681l-7.342 5.9095-.0353-.0264 3.4125-8.8408c.3482-.8978.2072-1.4166-.3919-1.8635l-2.5552-1.9055c-.564-.4208-1.2594-.4709-1.8015.2825l-7.748 10.7623c-.6716.9326-.2862 1.4128.2775 1.8336M148.7303 33.5317l1.3207 1.6736c.7016.8892.7118 1.8985-.1124 2.5973-1.0599.8977-1.9867.5775-2.6197-.2245l-1.3482-1.7084 2.7596-2.338zm-11.2768 5.598l1.0595 1.3424c.4401.5581.9292.9287 1.8043.1876l3.0789-2.6086 1.266 1.6036c2.3388 2.964 5.183 3.8997 7.959 1.5476 2.6417-2.238 2.6777-5.0032-.0188-8.4205l-3.0683-3.8881c-.44-.5578-1.0976-.7862-1.804-.1876l-10.0956 8.554c-.8752.741-.6212 1.3114-.181 1.8696zM68.6352 161.9083l-1.6082-.4737c-.6687-.1965-1.2743-.212-1.5845.9074l-2.351 8.4813c-.4596 1.6578-1.6296 2.2913-3.0912 1.861-1.4834-.4366-1.964-1.5563-1.5044-3.2136l2.351-8.4814c.3102-1.1193-.2122-1.4359-.8806-1.6328l-1.6293-.4796c-.6687-.197-1.2742-.212-1.5845.9074l-2.1241 7.6631c-1.1993 4.3267-.271 7.2542 4.3454 8.6132 4.6164 1.359 7.2185-.5296 8.4177-4.8563l2.1242-7.6631c.3103-1.1194-.2121-1.4363-.8805-1.633M92.8295 167.0837c-.1142-.7588.5635-1.3451 1.4452-1.4732.7056-.1027 1.3334.0274 1.8652.4154.7052.4952.9093.953 2.0376.3678l1.1286-.585c.9842-.4978.7571-1.107.3197-1.6193-1.4459-1.6729-3.4058-2.119-5.9407-1.75-3.3072.4816-5.4548 2.6773-5.0634 5.2789.9232 6.1352 8.875 2.984 9.296 5.7808.1403.9321-.6951 1.519-1.8415 1.6858-.9918.1442-1.775-.1181-2.3326-.6797-.583-.5798-.6898-1.14-1.8032-.6017l-1.5343.7332c-.9243.4445-.8299 1.0728-.4517 1.6386 1.4637 2.091 3.6162 2.6197 6.3276 2.2252 3.7258-.5425 6.0667-2.6553 5.5774-5.9072-.8911-5.9185-8.6319-2.8645-9.0299-5.5096M115.3495 170.2424c-.3486-.8304-1.0925-.9682-1.8066-.7328l-1.5401.5073c-.7145.2354-1.1759.77-.8272 1.6007l.5068 1.2062c.3483.8307 1.0921.9681 1.8062.7328l1.5402-.5073c.714-.2354 1.1755-.77.8268-1.6008l-.506-1.2061z"/>
    <g transform="translate(75.9302 175.0772)">
      <mask id="f" fill="#fff">
        <use xlink:href="#e"/>
      </mask>
      <path fill="#003B63" d="M3.3696.1963L1.8212.105C1.103.0623.4745.4114.4197 1.3627l-.0804 1.381c-.0552.951.5283 1.372 1.2466 1.4142l1.5484.0918c.7183.0421 1.3464-.3073 1.4015-1.2578l.0805-1.3815C4.671.6595 4.0876.2388 3.3696.1964" mask="url(#f)"/>
    </g>
    <g fill="#EE383B">
      <path d="M69.9274 140.4932h-3.29l2.156-2.392c.5147-.572.8806-1.09 1.0966-1.5536.216-.4637.3236-.9599.3236-1.4886 0-.7623-.255-1.3694-.7663-1.82-.5106-.4507-1.1942-.676-2.0499-.676-.49 0-.9802.0888-1.4703.2664-.4902.178-.918.4186-1.2835.7216-.0997.087-.1724.178-.218.273-.0454.0957-.0686.208-.0686.338 0 .1907.0522.3553.1557.494.1039.139.2264.208.368.208.0827 0 .1658-.0195.2492-.0585a1.5042 1.5042 0 0 0 .2489-.1495c.3243-.234.6462-.4178.9657-.5525.3198-.134.65-.2015.991-.2015.415 0 .7352.1087.9591.325.2247.2167.3368.5287.3368.936 0 .3294-.0813.6609-.243.9946-.162.3336-.4174.7002-.7663 1.0985l-2.8411 3.1851c-.1914.2084-.2866.442-.2866.702 0 .1998.062.3662.187.501.1242.1343.2945.201.5105.201h4.7355c.498 0 .7473-.2296.7473-.689 0-.442-.2493-.663-.7473-.663M78.5604 139.7463c-.254.5349-.66.8023-1.2169.8023-.5572 0-.9632-.2674-1.2169-.8023-.254-.535-.381-1.3844-.381-2.5484s.127-2.0113.381-2.542c.2537-.531.6597-.7963 1.2169-.7963.5569 0 .9629.2632 1.2169.7899.2537.5264.381 1.3755.381 2.5484 0 1.164-.1273 2.0134-.381 2.5484m-1.2169-7.1834c-1.0243 0-1.8069.3962-2.3477 1.188-.5409.7912-.8113 1.9406-.8113 3.447 0 1.5149.2704 2.6682.8113 3.4599.5408.7913 1.3234 1.1875 2.3477 1.1875 1.0243 0 1.807-.398 2.3478-1.1943.5408-.7956.8109-1.9468.8109-3.4531 0-1.5064-.2701-2.6558-.811-3.447-.5408-.7918-1.3234-1.188-2.3477-1.188M90.3297 141.1524c0-.4446-.2416-.6668-.7246-.6668h-1.268v-7.0863c0-.2611-.0689-.4663-.2054-.6145-.1369-.1478-.318-.2219-.5435-.2219-.2173 0-.4468.0781-.6883.235l-1.872 1.2551c-.2096.1395-.314.3356-.314.5884 0 .192.0584.366.1752.523.1167.1568.2596.2353.4287.2353.0886 0 .1892-.0349.302-.1046l1.1593-.7714v5.9619h-1.256c-.4911 0-.7367.2222-.7367.6668 0 .462.2456.6929.7367.6929h4.082c.483 0 .7246-.231.7246-.693M97.9393 136.7162c-.281.3039-.6497.4555-1.106.4555-.448 0-.8064-.1495-1.0753-.449-.2688-.2996-.4032-.6976-.4032-1.194 0-.4965.1344-.8966.4032-1.2005.2689-.3038.6273-.456 1.0754-.456.4562 0 .8248.1522 1.1059.456.281.3039.4216.704.4216 1.2005 0 .4878-.1406.8837-.4216 1.1875m-1.277 3.8067c-.5295 0-1.1327-.2482-1.8085-.7446-.106-.0685-.1956-.1177-.2689-.1477a.6092.6092 0 0 0-.2322-.045c-.1388 0-.2586.066-.3604.199-.1022.1328-.1528.2932-.1528.4815 0 .128.022.2372.0672.3274.0445.0899.1202.1819.226.276.3256.2996.7228.5371 1.1915.7126.4685.1751.9348.2632 1.3992.2632.7003 0 1.3092-.1926 1.8269-.5777.517-.3852.914-.9394 1.1914-1.6627.2767-.7232.4155-1.577.4155-2.5613 0-1.4379-.2953-2.5442-.886-3.3191-.5906-.7746-1.4317-1.1616-2.5234-1.1616-.5543 0-1.0492.1284-1.4847.3852-.4358.2564-.7783.6141-1.0264 1.0717-.2489.4582-.3728.9782-.3728 1.5599 0 .5649.1117 1.068.3358 1.5089.2243.4408.536.7828.9351 1.027.3989.2436.8554.3656 1.3686.3656.4644 0 .884-.113 1.2587-.3399.3744-.2268.6555-.5328.8432-.918-.0167 1.0443-.1956 1.8553-.5377 2.4326-.3422.5778-.811.867-1.4053.867M49.5715 113.5642c-.468-.2097-1.0772-.3998-1.8277-.5714-.7083-.1626-1.21-.338-1.5051-.5264-.2951-.1879-.4427-.4575-.4427-.8088 0-.419.1666-.7464.4996-.9822.333-.2353.786-.353 1.3597-.353.4722 0 .8702.0624 1.1952.1865.3243.1238.6595.3142 1.0055.571.118.0688.213.1155.2846.1415a.6963.6963 0 0 0 .234.0382c.143 0 .2677-.066.3731-.199.105-.1327.1581-.2889.1581-.4686 0-.137-.0235-.2504-.0695-.3402-.0464-.0899-.1248-.182-.234-.276-.7593-.6506-1.7412-.9758-2.947-.9758-.6577 0-1.2504.1177-1.777.353-.5274.2358-.9385.5632-1.2333.9822-.295.4194-.4426.8945-.4426 1.4251 0 .5136.118.9372.3541 1.271.2358.3339.586.6081 1.0498.822.4634.2137 1.0666.402 1.8087.565.7163.1626 1.2286.3313 1.5367.5068.3074.1758.4617.4261.4617.751 0 .4198-.1645.7382-.4933.9565-.3289.2183-.8014.3274-1.4166.3274-.4806 0-.919-.06-1.3154-.1794-.3966-.1198-.776-.3124-1.1383-.5781-.1943-.1198-.3668-.1794-.5186-.1794-.1437 0-.2677.066-.3731.1987-.1054.1326-.1581.2892-.1581.469 0 .2653.097.4707.2909.6158.3626.3.8327.5375 1.4103.7126.5776.175 1.1906.2632 1.8402.2632.683 0 1.288-.1134 1.815-.3403.527-.2264.936-.5435 1.2269-.95.2909-.4062.4363-.8752.4363-1.4059 0-.4875-.1243-.894-.373-1.2196-.2488-.325-.6072-.5924-1.0751-.8024M57.0961 118.0536c.147.1525.3464.2288.5983.2288.2436 0 .4388-.0763.5861-.2288.1466-.1522.2204-.3552.2204-.608v-7.0598h2.2921c.5042 0 .7561-.2306.7561-.6925 0-.4623-.2519-.6933-.756-.6933h-6.2098c-.5035 0-.7558.231-.7558.6933 0 .462.2523.6925.7558.6925h2.2924v7.0598c0 .2528.0735.4558.2204.608M64.6562 116.447c-.1996.2051-.2992.4594-.2992.7641s.0996.5595.2992.7646c.1992.2043.4506.3067.7537.3067.304 0 .5554-.1024.7542-.3067.1992-.2051.2988-.4599.2988-.7646 0-.3047-.0996-.559-.2988-.7641-.1988-.2048-.4502-.3067-.7542-.3067-.3031 0-.5545.102-.7537.3067M81.8912 116.8965h-3.3575v-7.0597c0-.2532-.0697-.4555-.2091-.608-.1394-.1525-.3286-.2288-.5676-.2288-.231 0-.4162.0763-.5556.2288-.1394.1525-.209.3548-.209.608v7.6611c0 .244.0637.4358.1911.5753.1275.1398.3067.2092.538.2092h4.1697c.4779 0 .7169-.2306.7169-.693 0-.4616-.239-.693-.717-.693M90.8343 116.0998c-.4565.5735-1.0905.8602-1.902.8602-.8204 0-1.4586-.2867-1.9144-.8602-.4564-.5731-.6842-1.3951-.6842-2.465 0-1.07.2278-1.8895.6842-2.4586.4558-.5692 1.094-.8538 1.9145-.8538.8114 0 1.4454.2846 1.9019.8538.4561.5691.6842 1.3887.6842 2.4586s-.2281 1.8919-.6842 2.465m.339-6.5349c-.6323-.3766-1.3789-.5649-2.241-.5649-.8623 0-1.6113.1883-2.247.5649-.6365.3766-1.1236.9137-1.463 1.6113-.3385.6975-.5083 1.517-.5083 2.4586 0 .9418.1715 1.7631.515 2.465.3428.7018.8307 1.241 1.4622 1.6177.6322.3766 1.3788.5649 2.2412.5649.8533 0 1.596-.1883 2.2283-.565.6315-.3765 1.1194-.9158 1.4625-1.6176.3428-.7019.5143-1.5232.5143-2.465 0-.9415-.1694-1.761-.5084-2.4586-.3386-.6976-.8243-1.2347-1.4559-1.6113M103.6179 109c-.2304 0-.4132.0753-.548.226-.135.1505-.2028.3503-.2028.6002v4.751c0 .7746-.1709 1.3638-.5122 1.7683-.342.4049-.8385.6071-1.4896.6071-.6598 0-1.1603-.2004-1.502-.6003-.3416-.4002-.512-.9923-.512-1.7751v-4.751c0-.25-.068-.4497-.203-.6003-.135-.1506-.3178-.2259-.5482-.2259s-.4131.0753-.5478.226c-.1354.1505-.203.3503-.203.6002v4.6606c0 1.2394.2983 2.1818.8942 2.8273.5955.6452 1.4694.9683 2.6218.9683 1.144 0 2.014-.325 2.6095-.9747.596-.6499.8942-1.5901.8942-2.821v-4.6605c0-.25-.0679-.4497-.203-.6003-.135-.1506-.3177-.2259-.5481-.2259M110.6867 117.4397v-7.61c0-.2506-.0638-.4516-.1904-.6028-.1273-.1513-.2993-.2269-.5169-.2269-.2104 0-.3793.0756-.506.2269-.1272.1512-.1907.3522-.1907.6028v7.61c0 .2506.0635.4537.1908.6093.1266.1556.2955.2334.506.2334.2175 0 .3895-.0778.5168-.2334.1266-.1556.1904-.3587.1904-.6093M120.2549 117.9421c.527-.2268.936-.5435 1.2268-.95.291-.4066.4364-.8752.4364-1.4059 0-.4878-.1244-.894-.3731-1.2196-.2488-.3253-.6071-.5928-1.075-.8024-.468-.2097-1.0773-.3998-1.8277-.5714-.708-.1626-1.21-.338-1.5051-.5264-.2952-.1883-.4427-.4579-.4427-.8088 0-.4194.1665-.7468.4996-.9822.333-.2353.7859-.353 1.3596-.353.4722 0 .8706.0624 1.1956.1861.324.1242.6591.3146 1.0052.5714.118.0684.2129.1155.2846.1412a.689.689 0 0 0 .234.0385c.1433 0 .2677-.0663.373-.199.1055-.1327.1582-.2889.1582-.4686 0-.137-.0232-.2504-.0696-.3402-.0464-.0899-.1247-.182-.234-.276-.7589-.6506-1.7412-.9758-2.947-.9758-.6577 0-1.25.1177-1.7767.353-.5273.2354-.9384.5628-1.2335.9822-.2951.4194-.4427.8945-.4427 1.4251 0 .5132.118.9372.3542 1.2707.236.3342.586.6084 1.0498.822.4637.214 1.0666.4023 1.809.565.7163.1625 1.2286.3316 1.5367.507.3074.1755.4613.4259.4613.7511 0 .4194-.1644.7382-.4933.9565-.3288.2179-.801.3274-1.4162.3274-.481 0-.9194-.06-1.3157-.1798-.3963-.1198-.7761-.3124-1.1384-.5777-.1942-.1198-.3668-.1797-.5182-.1797-.144 0-.268.0663-.3734.199-.1054.1326-.1581.2888-.1581.4686 0 .2653.097.471.2909.6162.3625.3.8326.5375 1.4106.7126.5772.175 1.1903.2632 1.8399.2632.683 0 1.288-.1134 1.815-.3403"/>
    </g>
  </g>
</svg>
