<svg xmlns="http://www.w3.org/2000/svg" viewBox="0 0 800 800"><defs><style>.a{fill:#fff;}</style></defs><title>WordCampUS-Logo</title><path class="a" d="M615.6,81.3c-2.6-5.8-9.4-8.4-15.2-5.8c-0.4,0.2-0.8,0.4-1.1,0.6c-34.9,20.6-69.3,31-102.3,31 c-55.3,0-87.8-29.3-88.1-29.6c-3.8-3.5-9.4-4-13.7-1.4c-0.4,0.3-45,26.7-103.1,26.7c-33.6,0.1-66.6-9.1-95.3-26.7 c-5.4-3.3-12.5-1.6-15.8,3.9c-0.3,0.5-0.5,0.9-0.7,1.4C150.9,150,144,217.1,159.6,280.9c12.5,50.9,39.3,99.6,79.6,144.7 c19.6,22,53.4,55,102.6,87.3c29.5,19.4,50.4,29.3,51.3,29.7c3.1,1.4,6.6,1.4,9.7,0c0.9-0.4,22.2-10.3,52.2-29.7 c27.6-17.9,68.1-47.5,104.1-87.4c40.9-45.2,67.8-93.9,80-144.8C654.4,217,646.5,149.9,615.6,81.3z M190.8,86 c30.5,18.7,65.6,28.5,101.3,28.3c62.3,0,109.1-28.3,109.1-28.3s35.4,32.6,95.8,32.6c30.2,0,66.7-8.1,108.1-32.6 c19.8,43.9,28.8,84.7,29.9,122.4l-472-3.2C164.1,168.4,172.5,128.7,190.8,86z M398,532.2c0,0-232.5-109.5-235-315.5l472.2,3.2l0,0 C632.5,423.8,398,532.2,398,532.2z"/> <path class="a" d="M257.2,136.4c-0.4-0.1-0.9-0.2-1.3-0.2l0,0c-1,0-1.9,0-2.9,0c-2.6,0.1-4.2,1.6-4.6,4.2 c-0.1,0.6-0.2,1.3-0.4,2.2l-0.3,2.2c-0.1,0.3-0.3,1.9-1.7,11.1c-0.4,2.2-1.4,9-1.5,9.5v0.1l-0.1,1.1c-0.4-2.8-0.7-4.5-0.9-5.1 c-0.4-2.4-1.1-6.8-2.2-13c-0.5-3.1-1-5.8-1.4-8.3c-0.2-1.6-1.3-3-2.8-3.6c-0.6-0.2-1.3-0.4-2-0.4c-0.4,0-0.9,0-1.6,0h-1.4 c-1.1,0-2.2,0.4-3,1.2c-0.8,0.8-1.4,1.8-1.6,2.9c-0.1,0.4-0.1,0.9-0.2,1.4c-0.3,1.5-0.9,5.5-2,11.8c-1.9,11.5-2,11.9-2,12l-0.2,1.1 c-0.4-2.5-0.6-4.1-0.7-4.8c-0.2-1-0.8-5.2-2-12.6l-1.5-9c-0.2-1.1-0.7-2.1-1.5-2.8c-0.7-0.7-1.7-1.1-2.7-1.2c-1.6,0-3,0-4,0 c-0.8,0.1-1.6,0.5-2.2,1.1c-0.5,0.6-0.8,1.5-0.8,2.3c0,0.4,0.1,0.9,0.1,1.3l0,0c0,0.1,0,0.1,0.1,0.2c0,0.3,0.1,0.8,0.2,1.3l0.8,4.4 c1.9,10.1,2.9,15.3,3,15.9l0,0c0.8,4.3,1.8,9.6,3.1,16.1c0.5,2.8,0.9,4.5,1,5c0.3,2.2,2.2,3.8,4.4,3.8c0.7,0,1.3,0,2,0 c0.9,0,1.7,0,2.5-0.1c1.6-0.1,3.7-0.8,4.4-4c0-0.2,0.1-0.4,0.2-0.8c1.6-8.4,2.6-13.7,3-16l1.1-5.9c0.5,2.5,0.6,3,0.6,3.1 c0.6,3,1.5,7.9,2.8,14.8c0.5,2.6,0.8,4.2,0.9,4.8c0.3,2.2,2.2,3.9,4.4,3.9c1,0,2.4,0,4.3,0c1.3,0,2.6-0.6,3.4-1.7 c0.6-0.7,0.9-1.5,1.1-2.3h-0.1v-0.2l0,0c0,0,0-0.1,0-0.1c0.2-0.9,0.5-2.4,1-5c0.2-1.3,0.8-4.4,1.7-9.1c0.7-3.7,1.3-6.8,1.7-9.1 c2.1-11.1,3.3-17.5,3.6-19.2c0.1-0.6,0.1-1.1,0.1-1.7C259.2,137.9,258.4,136.8,257.2,136.4z"/> <path class="a" d="M306.9,150.3c-0.6-2.7-1.7-5.2-3.2-7.6c-1.6-2.6-4.1-4.5-7-5.5c-2.7-0.9-5.5-1-8.2-0.5 c-4.1,0.8-7.6,3.4-9.6,7.2c-0.9,1.6-1.6,3.2-2.1,4.9c-1,3.7-1.6,7.5-1.6,11.4c-0.1,2.2,0,4.4,0.2,6.5c0.2,2.7,0.6,5.3,1.3,7.9 c0.7,2.6,1.8,5.1,3.3,7.3c1.8,2.6,4.4,4.4,7.4,5.3c1.4,0.4,2.8,0.6,4.3,0.6c0.8,0,1.5-0.1,2.2-0.1c3.4-0.4,6.5-2,8.7-4.6 c0.9-1,1.6-2.1,2.2-3.3c1.1-2.1,1.8-4.4,2.3-6.7c0.7-3.6,1.1-7.3,1.1-10.9c-0.2-4.5-0.2-4.7-0.2-4.7 C307.8,155,307.5,152.6,306.9,150.3z M297.8,161.7c0,2.7-0.2,5.3-0.6,7.9c-0.2,1.4-0.6,2.7-1.1,4c-0.3,0.6-0.6,1.2-1,1.8 c-0.7,1-2,1.7-3.2,1.6c-1.3,0-2.5-0.5-3.3-1.5c-0.5-0.6-0.9-1.3-1.2-2c-0.7-1.7-1.1-3.5-1.3-5.3c-0.4-3.6-0.5-7.2-0.2-10.7 c0.1-1.8,0.4-3.7,0.9-5.4c0.3-1,0.7-2,1.3-2.9c0.7-1.2,2-2,3.4-2c0.5,0,1,0.1,1.5,0.2c0.8,0.2,1.5,0.7,2,1.4 c0.6,0.8,1.1,1.7,1.4,2.7c0.5,1.4,0.8,2.8,1,4.3c0.1,0.7,0.2,1.4,0.2,2C297.6,158,297.6,158.8,297.8,161.7L297.8,161.7z"/> <path class="a" d="M351.5,163.1c1.2-2.7,1.9-5.7,1.9-8.6c0-0.6,0-1.3-0.1-1.9c-0.1-4.2-1.8-8.1-4.6-11.2c-3.1-3.3-7.4-5-12.9-5.2 l0,0c-0.3,0-0.7-0.1-1-0.1h-0.7c-1.6-0.1-3.1-0.1-4.7,0c-0.7,0-1.3,0-2,0c-1,0-2,0.4-2.7,1.1c-0.7,0.7-1.2,1.7-1.2,2.7 c0,0.4,0,0.8,0,1.3c0,7.9,0,19.7,0,35.4v5c0,0.9,0,1.6,0.1,2.2c0,1,0.4,1.9,1.1,2.6c0.6,0.7,1.5,1.2,2.5,1.3c0.5,0,1.1,0.1,1.7,0.1 s1.2,0,1.8-0.1c1.8,0,3.3-1.4,3.5-3.1c0.1-0.5,0.2-1,0.1-1.6c0-0.1,0-1.1,0-3v-3.8c0-1.3,0-1.6,0-1.7c0-0.8,0.5-1.5,1.2-1.8 c0.1,0,0.4-0.1,1.2-0.1c0.1,0,0.1,0,0.3,0.2c0.3,0.3,0.5,0.6,0.7,0.9c0.3,0.5,0.5,1,0.7,1.6c0.2,0.6,0.8,2,1.6,4.3 c0.7,1.8,1.2,3.2,1.6,4.4c0.8,2.3,2.9,3.8,5.3,3.8h2.9c0.4,0,0.7-0.1,1.1-0.1h0.1c1.5-0.4,2.4-1.9,2-3.4c0-0.1,0-0.1,0-0.2 c-0.1-0.3-0.2-0.7-0.5-1.4l0,0l0,0l-5.1-13.4l-0.2-0.5h0.1C349.2,167.2,350.6,165.2,351.5,163.1z M342.2,157.5l-1.2,3.6l-3.9,0.4h-1 c-0.5,0-0.9-0.2-1.2-0.5c-0.4-0.4-0.6-0.9-0.6-1.5v-10.3c-0.1-0.6,0.2-1.3,0.6-1.7c0.4-0.4,0.9-0.6,1.4-0.6h0.1 c0.9,0,1.8,0.2,2.6,0.5c1.6,0.6,2.8,1.9,3.3,3.5C343,153.1,343,155.4,342.2,157.5z"/> <path class="a" d="M396.2,145.9c-3.3-6.5-8.1-9.7-14.4-9.7h-9.4c-0.9,0-1.8,0.3-2.5,0.9c-0.7,0.6-1.2,1.4-1.3,2.3 c-0.1,0.6-0.2,1.2-0.1,1.8V162c0,0.1,0,0.2,0,0.2v2.6c0,11.9,0,17.9,0,18.2c0,0.4,0,0.7,0.1,1.1c0.1,0.9,0.5,1.8,1.2,2.5 c0.7,0.8,1.8,1.2,2.9,1.1h2.7c1.1,0,2.1,0,2.7,0s1.8,0,3.4,0c5.3,0,9.7-2.6,13.2-7.6c3.2-4.7,4.9-10.2,4.9-15.9l0,0 C400.1,158,399,151.6,396.2,145.9z M386.1,174.3c-1.1,1.7-3.1,2.7-5.2,2.4c-0.4,0-0.8-0.3-1.1-0.6c-0.3-0.4-0.5-0.8-0.5-1.3 c0-0.4,0-1.2,0-2.5v-23.3c0-0.5,0.2-1,0.5-1.3c0.3-0.3,0.7-0.5,1.1-0.6c0.2,0,0.5,0,0.7,0c1.4,0,2.8,0.5,3.8,1.6 c0.9,0.9,1.5,2,2,3.1c0.6,1.5,1,3,1.2,4.6c0.5,3.2,0.5,6.5,0.2,9.7c-0.2,2-0.6,4-1.4,5.9C387,172.8,386.6,173.6,386.1,174.3 L386.1,174.3z"/> <path class="a" d="M427.6,150.1c0.3-0.7,0.8-1.4,1.4-2c0.7-0.8,1.7-1.2,2.8-1.3c1.2-0.1,2.3,0.4,3.1,1.2c0.6,0.5,1,1.2,1.4,1.9 c0.1,0.3,0.3,0.5,0.5,0.8c0.8,1.2,2.2,1.8,3.5,1.5c0.5-0.1,1-0.3,1.4-0.6c1.4-0.8,2.7-1.9,3.7-3.2c0.9-1,1.1-2.4,0.6-3.6 c-0.5-1.1-1.2-2.1-2-3c-1.9-2.6-4.7-4.4-7.8-5.1c-2.7-0.7-5.5-0.7-8.1,0c-3.2,0.7-6,2.6-7.9,5.2c-1.3,1.8-2.3,3.9-3,6 c-1.1,3.4-1.7,7-1.8,10.6c-0.1,2-0.1,4.3,0,6.8c0.1,2.9,0.5,5.8,1.2,8.6c0.6,2.7,1.7,5.2,3.2,7.5c1.9,3,4.9,5.1,8.3,5.9 c1.3,0.3,2.7,0.5,4,0.5c1.1,0,2.2-0.1,3.2-0.3c3-0.5,5.8-2,7.8-4.2c1.1-1.1,1.9-2.4,2.6-3.9c0.1-0.3,0.2-0.7,0.2-1 c0-2.1-1.6-4-4.7-5.6c-0.1-0.1-0.3-0.1-0.4-0.2c-1.6-0.9-3.5-0.3-4.4,1.2c0,0.1-0.1,0.2-0.2,0.4l-0.2,0.3c-0.9,1.2-1.1,1.4-1.2,1.5 c-0.8,0.8-1.9,1.3-3.1,1.2c-1-0.1-2-0.5-2.8-1.3c-0.6-0.7-1.2-1.5-1.5-2.3c-0.5-1.3-0.9-2.6-1.1-4c-0.4-2.7-0.6-5.4-0.6-8.2 c0-2.3,0.2-4.7,0.6-6.9C426.5,152.8,427,151.4,427.6,150.1z"/> <path class="a" d="M494.3,182.6c-2.2-9.9-4-17.9-5.3-23.9l-4.1-18.5c-0.2-1.1-0.8-2-1.6-2.8c-0.9-0.9-2.1-1.4-3.3-1.4h-3.5 c-1.3,0-2.5,0.5-3.4,1.4c-0.8,0.8-1.3,1.8-1.6,2.8c-0.1,0.4-0.7,3.2-1.8,8.4c-0.6,2.5-2.8,12.5-6.6,29.9c-0.6,2.9-1,4.5-1.1,4.8 c-0.3,1-0.1,2.1,0.5,3c0.6,0.8,1.5,1.3,2.6,1.4h3c0.4,0,0.7,0,1.1-0.1c1.9-0.4,3.4-1.8,3.8-3.8c0-0.1,0-0.2,0.3-1.6 c0.1-0.7,0.5-1.3,1-1.7c0.4-0.4,1-0.6,1.5-0.6c1.4,0,3,0,4.8,0c0.6,0,1.1,0.2,1.5,0.6c0.5,0.4,0.8,0.9,0.9,1.5 c0,0.1,0.1,0.4,0.1,0.6s0.1,0.6,0.2,0.7c0.6,2.7,2.3,4.2,5,4.3h2.6c0.4,0,0.7-0.1,1.1-0.1c0.8-0.2,1.5-0.6,2-1.3 c0.5-0.7,0.7-1.5,0.6-2.4C494.5,183.5,494.4,183,494.3,182.6z M477,162.5c0.2-1.2,0.3-1.5,0.3-1.5c0,0,0-0.1,0-0.1 c0-0.1,0.1-0.6,0.3-1.6c0-0.1,0.1-0.2,0.1-0.3c0-0.1,0-0.2,0-0.3c0.1-0.5,0.2-0.9,0.5-1.3l0,0c0.2,0.3,0.3,0.6,0.3,0.9 c0.2,1.3,0.5,2.7,0.8,4.3l0.8,4.3l0.2,1.2c0,0.3-0.2,0.6-1.1,0.6c-0.8,0.1-1.7,0.1-2.5,0c-0.3,0-0.6,0-0.6-0.1s-0.2-0.6-0.1-1.4 C476.1,167.2,476.3,166.4,477,162.5z"/> <path class="a" d="M547.2,141.7c0-0.6,0-1.3-0.1-1.9c0-0.5-0.1-1-0.3-1.5c-0.5-1.5-1.9-2.5-3.5-2.5c-0.7,0-1.9,0-3.6,0 c-2.4,0-4.7,1.4-5.7,3.6c-0.4,0.7-1,1.9-1.9,3.6l-1.9,3.7l-1.9,3.7l0,0l-0.4,0.7l-0.5-1l-2.6-4.9l-2.6-4.9c-0.4-0.7-0.6-1.1-0.7-1.2 l-0.1-0.1c-1-1.8-2.8-2.9-4.8-3.1c-1.5-0.1-3-0.1-4.5,0c-1.9,0-3.5,1.5-3.6,3.4c-0.1,0.5-0.1,1-0.1,1.5c0,0.9,0,2.3,0,4.2v16.4 c0,3.1,0,10.4,0,21.7c0,0.4,0,0.6,0,0.8c0,1,0.4,2,1.2,2.7c0.7,0.8,1.7,1.2,2.7,1.2c0.5,0,1,0,1.5,0s1,0,1.5,0c1,0,2-0.4,2.8-1.2 c0.7-0.8,1.1-1.8,1.2-2.8v-27.5c0.3,0.7,0.7,1.4,1.2,2.3c0.6,1.3,1.2,2.4,1.7,3.3c0.9,1.7,2,3.6,3.1,5.6c0,0.1,0.1,0.1,0.1,0.2 c0.7,1,2,1.4,3.2,1.1c0.5-0.2,1-0.5,1.3-0.9l0.1-0.1l6.4-10.9l0,0c0,0.9,0,1.6,0,2.1c0,2.3,0,5.3,0,8.9v15.6c0,1.1,0.5,2.1,1.2,2.9 c0.8,0.8,1.8,1.2,2.9,1.2c1,0,1.9,0,2.7,0c1,0,2-0.4,2.8-1.2c0.8-0.8,1.2-1.8,1.3-2.9v-19.1c0-8,0-14,0-18L547.2,141.7z"/> <path class="a" d="M591,142.5c-3.1-4.1-7.8-6.2-14-6.4l0,0c-2.3-0.1-4.5-0.1-6.8,0h-1.2c-0.3,0-0.6,0-0.9,0c-1,0.1-2,0.5-2.7,1.3 c-0.7,0.8-1.1,1.8-1.1,2.9v21.5c0,0.1,0,0.2,0,0.2v21.7c0,0,0,0.1,0,0.1c0.1,1.1,0.5,2,1.3,2.8c0.7,0.7,1.6,1.1,2.6,1.1h3.2 c1-0.1,1.8-0.5,2.5-1.2c0.6-0.7,1-1.5,1.1-2.5c0,0,0-0.1,0-0.1v-1c0-3.8,0-5.9,0-6.2c0-0.5,0,0,0,0c0-0.3,0-0.7,0-1 c0.1-0.7,0.5-1.3,1.2-1.6c0.3-0.1,0.6-0.1,0.8-0.1l3-0.3h0.2c5.2-0.8,9.6-4.3,11.7-9.1c1.1-2.2,1.7-4.6,2-7.1 c0.1-0.6,0.2-1.2,0.2-1.8C594.9,150.5,593.7,146,591,142.5z M583.7,155c0,1.4-0.2,2.7-0.7,4l0,0c-0.8,2.4-3.1,4-5.6,3.9 c-1,0-1.9-0.2-2.1-2.1c0-0.3,0-0.5,0-0.8v-10.4c0-0.4,0-0.7,0.1-1c0.1-0.5,0.3-0.9,0.7-1.2c0.3-0.3,0.6-0.4,1-0.4h0.5 c2.2-0.1,4.2,1.1,5.2,3c0.7,1.3,1.1,2.7,1.1,4.1L583.7,155z"/> <path class="a" d="M369.3,413.9c7.9-11.2,11.8-26.7,11.6-46.1v-2c0-0.2,0-0.3,0-0.5l0.2-2.8v-69.9c0-13.9,0-24.9-0.1-33 c-0.1-5.1-1.7-6.7-6.8-6.9c-3,0-6.5,0-10.7,0.1c-3.8,0.1-5,1.7-5.6,4.4c-0.2,1-0.3,2-0.2,3c0,2.1,0,5,0.1,8.8v90.2 c0,8.2-0.6,16.3-1.8,24.4c-0.9,6.6-3.7,12.8-8,17.9c-8.8,10.3-24.3,11.5-34.6,2.6c-1.2-1-2.2-2.1-3.2-3.3c-3.6-4.3-6-9.4-7.1-14.8 c-1.6-8-2.4-16.1-2.5-24.2c-0.1-25.8-0.1-48.9-0.1-69.4v-33.9c-0.2-1.5-0.9-2.9-1.9-3.9c-1-1-2.4-1.6-3.9-1.7 c-4.1-0.2-8.2-0.2-12.1,0c-1.4,0.1-2.8,0.7-3.8,1.8c-1,0.9-1.6,2.2-1.6,3.6v3.7c0,43.1,0,80,0.1,110.9v3c0,7.3,1.2,14.6,3.3,21.6 c2.7,8.8,6.9,16,12.5,21.5c9.4,9.1,19.4,13.7,30.4,14c0.4-0.1,0.8-0.1,1.2-0.1h1.1c0.5,0,1,0.1,1.4,0.1 C346.5,433.2,360.2,427,369.3,413.9z"/> <path class="a" d="M470.3,432.9c2.3-0.1,4.6-0.3,6.9-0.7c9.4-1.2,17.4-4.2,23.9-8.9c11.9-8.6,17.9-20.2,18.4-35.4 c0-0.2,0-0.4,0-0.5c0.8-6.8-0.2-14.4-3.3-22.3c-2.5-6.9-7.4-13.2-14.5-18.9c-4.5-3.6-9.4-6.7-14.5-9.4c-1.7-0.9-4.8-2.4-9-4.7 c-3.9-2-7-3.5-9.1-4.7c-3.9-2-7.6-4.2-11.2-6.5c-2.8-1.9-5.3-4.1-7.6-6.5c-5.3-5.4-7.8-12.9-6.8-20.4c1.1-9.4,6.5-15.7,15.8-18.2 c7.7-2,15.1-0.4,22.1,4.6c4,2.9,7.3,6.6,9.8,10.9c0.5,0.8,1,1.7,1.5,2.5l0,0c1,1.7,3,2.5,4.9,1.9c0.8-0.2,1.6-0.5,2.3-1 c3.1-1.8,7.7-4.7,14-8.7c0.2-0.2,0.3-0.5,0.4-0.7c0.2-0.3,0.3-0.5,0.3-0.8l-0.1-0.2c-0.1-0.1-0.1-0.3-0.2-0.4 c-2-4.5-4.6-8.7-7.7-12.4c-4.7-6-10.9-10.7-17.9-13.8c-11.3-4.8-23.8-5.8-35.7-2.8c-13.5,3.3-22.9,11.1-28.7,23.9 c-3.1,6.8-4.5,14.6-3.9,23.4c0.4,9.3,4,18.2,10.1,25.2c2.9,3.4,6.2,6.5,9.8,9.1c4.5,3.5,9.3,6.5,14.3,9.2c1.1,0.6,3.2,1.9,8.4,4.6 c3.6,1.9,6.5,3.5,8.6,4.8c3.4,1.9,7.6,4.5,12.3,7.6c3.1,2.2,5.9,4.9,8.2,7.9c4.4,5.5,5.9,12.4,4.3,20.6c-1.7,8.8-6.6,15.1-14.3,18.2 c-10.6,4.4-21.7,3.4-32.9-3.1c-6.4-3.7-11-8.4-13.7-14c-0.5-0.1-1-0.2-1.5-0.2c-0.5,0-1-0.1-1.5-0.3c-1.6,0.2-3.1,0.6-4.5,1.3 c-2.6,1-5,2.6-6.9,4.6c-0.3,0.3-0.6,0.5-0.9,0.8c-0.7,0.5-1.6,1.4-1.8,3.9c-0.1,1.7,0.3,3.5,1.3,4.9c9.1,9.4,17,15.8,23.5,19.1 l0.3,0.2C451.7,431.3,460.9,433.5,470.3,432.9z"/> <path class="a" d="M507.2,574.7c0.8,0.5,1.7,0.8,2.6,0.8c0.4,0,0.8,0,1.1-0.1c1-0.2,1.8-0.7,2.5-1.5c0.7-0.8,1.2-1.8,1.3-2.8 c0-0.5,0.1-1.3,0.3-2.4c0.1-1.1,0.3-2.3,0.4-3.6c0.2-1.3,0.3-2.5,0.3-3.6c0.1-1,0.1-1.9-0.1-2.9c-0.6-2.6-3.2-4.3-5.9-3.7 c0,0,0,0-0.1,0c-1,0.2-1.9,0.8-2.5,1.6c-0.6,0.7-1,1.6-1.1,2.6c0,0,0,0.1,0,0.2c0,0.2-0.1,0.8-0.3,2.2c-0.2,1.2-0.3,2.5-0.5,3.8 s-0.2,2.5-0.3,3.6c-0.1,0.9-0.1,1.8,0,2.8C505.4,573,506.2,574,507.2,574.7z"/> <path class="a" d="M662.7,575.3c-0.3-1.4-1.2-2.5-2.5-3.1c-1.1-0.5-2.3-0.7-3.5-0.4c-1.2,0.3-2.2,1.2-3.5,3 c-0.9,1.3-2,2.9-3.3,4.8s-2.7,4-4.3,6.2c-1.7,2.3-3.5,4.4-5.4,6.4c-2,2.1-4.3,3.9-6.7,5.5c-2.3,1.5-4.8,2.7-7.4,3.4 c-0.3-0.4-0.6-0.9-0.8-1.5c-0.4-0.9-0.7-1.9-1-2.8c-0.3-1.1-0.6-2.2-0.8-3.2c-0.2-0.9-0.3-1.7-0.5-2.6v-0.1c3.3-1.6,6.5-3.5,9.4-5.7 c3.1-2.2,6-4.8,8.4-7.8c2.2-2.6,4-5.7,5.1-8.9c1.1-3.1,1.2-6.5,0.5-9.7c-0.4-2.1-1.6-3.9-3.3-5.1c-1.9-1.3-4.2-1.7-6.4-1.1 c-1.9,0.5-3.7,1.3-5.4,2.5c-1.9,1.3-3.7,2.8-5.4,4.4c-1.8,1.8-3.5,3.8-5,5.8c-1.6,2.2-3,4.5-4.3,6.9c-1.2,2.4-2.2,4.9-2.9,7.5 c-0.2,0.9-0.4,1.8-0.6,2.8c-1,0.7-1.9,1.5-2.5,2.6c-0.9,1.3-1.9,2.8-3,4.7s-2.4,3.8-3.7,6c-1.3,2.1-2.7,4.1-4.2,6 c-1.3,1.7-2.8,3.3-4.4,4.7c-1,1-2.3,1.7-3.7,2.2c-0.1-0.1-0.1-0.2-0.1-0.4c-0.1-0.4-0.2-0.7-0.3-1.1c-0.2-1-0.4-2-0.4-3 c0-1.1,0-2.2,0-3.3c0-0.4,0-1.4,0.2-3.4c0.1-1.7,0.3-3.6,0.5-5.7s0.5-4.4,0.7-6.7c0.3-2.3,0.5-4.5,0.8-6.5s0.5-3.7,0.7-5.1 c0.1-0.7,0.2-1.4,0.3-2.1c0.6-1.7,1.3-3.3,2.1-4.8c1-1.8,1.9-3.5,2.7-5.2c1.1-2.3,2.3-4.8,3.5-7.2s2.5-5,3.6-7.5s2.4-5.1,3.5-7.6 s2.1-5.1,3-7.6c0.6-1.6,1-3.2,1.4-4.8c0.4-1.9,0.4-3.8,0-5.7c-0.4-2.1-1.7-4-3.6-5c-1.8-0.9-3.9-1.1-5.9-0.5c-4,0.9-7.5,3.1-10,6.3 c-1.2,1.5-2.1,3.1-2.9,4.8c-0.8,1.8-1.5,3.6-2.1,5.4c-0.5,1.7-0.9,3.4-1.2,5.1c-0.4,1.9-0.7,4.1-1,6.3s-0.6,4.5-0.8,7 s-0.5,4.7-0.7,7l-0.6,6.4c-0.2,1.8-0.3,3.4-0.4,4.7c-0.3,0.6-0.9,1.5-1.6,2.7c-0.9,1.5-1.9,3.2-3,5.2c-1.1,1.9-2.3,4-3.5,6.1 c-1.2,2.2-2.3,4.2-3.3,6.1s-1.8,3.5-2.4,5l-0.1,0.3c-0.2,0.3-0.5,0.6-0.7,1c-0.9,1.3-1.9,2.9-3,4.7s-2.4,3.8-3.7,6 c-1.3,2.1-2.7,4.1-4.2,6c-1.3,1.7-2.8,3.3-4.4,4.7c-1,1-2.3,1.7-3.7,2.2c-0.1-0.2-0.2-0.4-0.2-0.6c-0.1-0.4-0.2-0.7-0.3-1.1 c-0.2-1-0.4-2-0.4-3c0-1.1,0-2.2,0-3.3c0-0.4,0-1.4,0.2-3.4c0.1-1.7,0.3-3.6,0.5-5.7c0.2-2.1,0.5-4.4,0.7-6.7 c0.3-2.3,0.5-4.5,0.8-6.5c0.3-2,0.5-3.7,0.7-5.1c0.1-0.7,0.2-1.4,0.3-2.1c0.6-1.7,1.3-3.3,2.1-4.8c1-1.8,1.9-3.5,2.7-5.2 c1.1-2.3,2.3-4.8,3.5-7.2s2.5-5,3.6-7.5s2.4-5.1,3.5-7.6s2.1-5.1,3-7.6c0.6-1.6,1-3.2,1.4-4.8c0.4-1.9,0.4-3.8,0-5.7 c-0.4-2.1-1.7-4-3.6-5c-1.8-0.9-3.9-1.1-5.9-0.5c-4,0.9-7.5,3.1-10,6.3c-1.2,1.5-2.1,3.1-2.9,4.8c-0.8,1.8-1.5,3.6-2.1,5.4 c-0.5,1.7-0.9,3.4-1.2,5.1c-0.4,1.9-0.7,4.1-1,6.3s-0.6,4.5-0.8,7s-0.5,4.7-0.7,7l-0.6,6.4c-0.2,1.8-0.3,3.4-0.4,4.7 c-0.3,0.6-0.9,1.5-1.6,2.7c-0.9,1.5-1.9,3.2-3,5.2c-1.1,1.9-2.3,4-3.5,6.1c-1.2,2.2-2.3,4.2-3.3,6.1s-1.8,3.6-2.4,5l-0.3,0.7 l-0.4,0.5c-0.8,1.3-1.9,2.9-3,4.7s-2.4,3.8-3.7,6c-1.3,2.1-2.7,4.1-4.2,6c-1.3,1.7-2.8,3.3-4.4,4.8c-1,1-2.3,1.7-3.6,2.2 c0-0.1-0.1-0.2-0.1-0.3c-0.1-0.4-0.2-0.7-0.3-1.1c-0.3-1.5-0.4-3-0.4-4.5c0-2,0.1-4.2,0.3-6.5s0.5-4.9,0.8-7.5s0.7-5.1,1-7.5 s0.7-4.7,1-6.7s0.6-3.7,0.7-5c0-0.3,0.1-0.5,0.1-0.8c0-0.4,0-0.7-0.1-1.1c-0.3-1.2-1-2.2-2.1-2.9c-1.1-0.8-2.5-1-3.8-0.7 c-1.3,0.3-2.5,1.2-3.2,2.4l-15.8,28.3c-0.4,0.7-0.9,1.5-1.4,2.3c-0.6,0.9-1.2,1.7-1.9,2.4c-0.7,0.7-1.6,1.1-2.5,1.3 c-0.7,0.2-1.4,0.2-2-0.1c-0.7-0.3-1.3-0.8-1.8-1.4c-0.6-0.7-1.1-1.5-1.5-2.4c-0.4-0.9-0.7-1.9-1-2.9c-0.5-2.1-0.8-4.1-1-6.2 c-0.2-2.4-0.5-4.7-1.1-7c-0.1-0.5-0.3-1.1-0.5-1.9c-0.2-0.8-0.6-1.6-1-2.4c-0.5-0.8-1.1-1.6-1.8-2.2c-1-0.8-2.3-1-3.5-0.7 c-1.2,0.3-2.3,1-3,2c-0.8,1.1-1.1,2.5-0.7,3.9c0.4,1.7,0.9,3.4,1.3,5c0.4,1.4,0.7,2.7,0.8,4.1c0,0.1,0,0.2,0,0.3v0.6 c0,0.1,0,0.1,0,0.2c0.2,2.2,0.3,4.3,0.2,6.5c-0.1,2.1-0.4,4.2-0.9,6.3c-0.6,2.3-1.4,4.5-2.4,6.6c-1.1,2.4-2.5,4.7-4,6.8 c-1.5,2.1-3.2,3.9-5.2,5.6c-1.6,1.4-3.6,2.5-5.7,3c-2.1,0.6-4.3,0.1-5.9-1.4c-0.8-0.8-1.5-1.7-2-2.7c-0.6-1.1-1-2.4-1.3-3.6 c-0.3-1.4-0.4-2.9-0.4-4.4c0-1.8,0.2-3.7,0.4-5.6s0.5-4,0.9-6.1s0.7-4.1,1-6s0.5-3.7,0.6-5.2c0.2-1.4,0.1-2.9-0.2-4.3 c-0.3-1.3-1.1-2.4-2.2-3.1c-1.1-0.7-2.5-0.8-3.7-0.5c-1.3,0.3-2.5,1.2-3.1,2.4L416.8,631l0,0c-0.6,1-1.4,2.4-2.3,4s-1.9,3.2-2.9,5 s-2.2,3.5-3.4,5.2s-2.5,3.3-3.7,4.8c-1.1,1.3-2.4,2.5-3.7,3.6c-0.9,0.7-1.9,1.3-2.9,1.6c-0.1-0.1-0.1-0.2-0.1-0.3 c-0.1-0.4-0.2-0.7-0.3-1c-0.5-2.3-0.7-4.6-0.5-7c0.2-2.5,0.5-5,0.9-7.6s0.7-5.3,0.9-7.9c0.2-2.8,0-5.6-0.7-8.4 c-0.4-1.6-1-3.1-1.8-4.5c-0.8-1.4-1.8-2.6-3.1-3.6c-1.3-1-2.7-1.7-4.3-2c-1.7-0.3-3.5-0.3-5.2,0.2c-1.7,0.4-3.3,1.1-4.8,2 c-1.6,0.9-3.1,1.9-4.5,3c-1.1,0.9-2.2,1.7-3.2,2.7l0.1-1l10.6-19.2c0.5-0.9,1-1.9,1.7-3.2c0.7-1.3,1.4-2.7,2.1-4.2s1.4-3,2.1-4.6 c0.7-1.6,1.3-3.2,1.8-4.8c0.5-1.5,0.8-3,1.1-4.6c0.2-1.5,0.2-3-0.1-4.4c-0.4-2.1-1.7-4-3.6-5c-1.8-0.9-3.9-1.1-5.9-0.5 c-2.2,0.5-4.2,1.4-6,2.7c-1.7,1.2-3.2,2.7-4.4,4.3c-1.2,1.7-2.3,3.5-3.1,5.4c-0.8,1.9-1.5,3.8-2,5.8c-0.5,2-1,4-1.3,6 s-0.6,3.9-0.8,5.6l-1.9,17.7l-18.6,33.4l0,0c-1,1.5-1.9,3-2.8,4.4c-1.2,1.8-2.6,3.6-3.9,5.2c-1,1.2-2.1,2.4-3.2,3.6 c0.1-0.5,0.3-0.9,0.4-1.4c1-3.4,1.9-6.9,2.6-10.4s1.3-7,1.7-10.5s0.8-6.9,1-10.2c0.1-0.6,0.1-1.1-0.1-1.7c-0.3-1.3-1.1-2.4-2.3-3 c-1.1-0.7-2.4-0.9-3.7-0.6c-2.4,0.6-4.6,1.5-6.7,2.8c-2.1,1.3-4.2,2.7-6.1,4.3c-2,1.6-3.8,3.2-5.6,4.9s-3.3,3.1-4.9,4.5 c-0.6,0.5-1.4,1.3-2.5,2.5c-1.1,1.1-2.3,2.4-3.6,3.8s-2.6,2.9-4,4.5s-2.6,3.2-3.7,4.7c-0.8,1.1-1.5,2.2-2.2,3.4l0,0 c-0.5,0.9-1.3,2.1-2.1,3.7s-1.8,3.2-2.9,4.9s-2.3,3.6-3.5,5.5s-2.5,3.5-3.7,5.1c-1.1,1.4-2.3,2.6-3.6,3.8c-0.7,0.6-1.4,1.1-2.2,1.5 c0-0.1-0.1-0.2-0.1-0.3c-0.1-0.3-0.2-0.6-0.2-0.9c-0.4-1.7-0.6-3.5-0.7-5.2c-0.1-2.1-0.1-4.3,0-6.6s0.3-4.8,0.5-7.3s0.5-4.9,0.8-7.2 s0.5-4.5,0.8-6.5s0.5-3.8,0.6-5.2c0-0.3,0.1-0.5,0.1-0.8c0-0.4,0-0.8-0.1-1.1c-0.6-2.6-3.1-4.2-5.7-3.6c-0.1,0-0.1,0-0.2,0 c-3.6,0.9-7.2,2-10.6,3.4c-3.8,1.5-7.4,3.3-10.9,5.3c-3.6,2.1-6.9,4.5-10,7.2c-3,2.7-5.7,5.7-7.9,9.1c-2,3.1-3.5,6.6-4.3,10.2 c-0.1,0.1-0.3,0.2-0.4,0.3c-0.4,0.4-0.8,0.9-1.1,1.5c-1.8,3.3-3.9,6.4-6.2,9.3l-2.6,3.2l6.4-56c0.1-0.8,0.2-1.8,0.4-3 s0.5-2.4,0.9-3.7c0.4-1.3,0.8-2.6,1.3-3.9c0.5-1.2,1-2.3,1.7-3.4c0.5-0.9,1.2-1.7,2-2.5c0.6-0.5,1.3-0.9,2-1.1 c0.8-0.2,1.7-0.2,2.5,0.2c0.6,0.4,1.1,1,1.2,1.7c0.1,0.3,0.1,0.6,0.1,0.8c0,0.7,0,1.4,0.2,2.1c0.3,1.3,1.1,2.4,2.3,3 c1.1,0.7,2.4,0.9,3.7,0.5c1.1-0.2,2.1-0.9,2.8-1.8c0.5-0.7,0.9-1.6,1-2.5c0.1-0.8,0.1-1.6,0-2.4c-0.1-0.7-0.2-1.4-0.4-1.9 c-0.4-1.7-1.1-3.2-2.1-4.6c-0.9-1.3-2.1-2.4-3.4-3.3c-1.4-0.9-2.9-1.4-4.5-1.7c-1.7-0.3-3.4-0.2-5.1,0.2c-2.8,0.7-5.4,2.1-7.4,4.2 c-1.9,2-3.5,4.3-4.6,6.8c-1.2,2.5-2.1,5.1-2.7,7.8c-0.6,2.4-1,4.9-1.3,7.3l-6.4,56l-31-65.2c-0.5-1-1.3-1.9-2.4-2.3 c-1.1-0.6-2.3-0.7-3.4-0.4c-1,0.2-1.9,0.8-2.5,1.5c-0.6,0.7-1,1.7-1.2,2.7l-3.9,36.2l-3.9,36.3c-0.1,0.8-0.2,1.8-0.4,3 s-0.5,2.4-0.9,3.7s-0.8,2.6-1.3,3.9c-0.4,1.2-1,2.3-1.6,3.4c-0.5,0.9-1.2,1.7-2,2.4c-0.6,0.5-1.3,0.9-2,1.1 c-0.8,0.3-1.7,0.2-2.5-0.1c-0.2-0.1-0.8-0.4-1.2-1.9c0-0.2,0-0.4,0-0.6c0.1-0.7,0-1.3-0.1-2c-0.3-1.2-1.1-2.3-2.1-3 c-1.1-0.7-2.5-0.9-3.7-0.6l0,0c-1.1,0.2-2.1,0.9-2.8,1.8c-0.5,0.7-0.8,1.6-0.9,2.5c-0.1,0.8-0.1,1.6,0,2.3c0.1,0.7,0.2,1.3,0.4,1.9 c0.9,3.9,2.9,6.7,5.8,8.3c1.8,1,3.9,1.5,6,1.5c1.3,0,2.6-0.2,3.9-0.5c0.4-0.1,0.8-0.3,1.2-0.5l0.9-0.5c0.4-0.2,0.7-0.4,1.1-0.6 c0.3-0.2,0.6-0.3,0.8-0.5c1.9-1.3,3.6-3,5-4.9c1.3-1.9,2.5-3.9,3.4-6c0.9-2.1,1.6-4.3,2.1-6.6c0.5-2.2,0.8-4.4,1.1-6.5l6-55.1 l31,65.2c0.5,1,1.3,1.8,2.3,2.3c1,0.5,2.1,0.6,3.2,0.3c1.2-0.4,2.2-1.1,3-2c0.9-0.9,2-2,3.2-3.4s2.4-2.9,3.8-4.6s2.7-3.5,4-5.2 c1.1-1.5,2.2-3,3.2-4.5c0.5,1.3,1.1,2.5,1.8,3.7c1.2,1.8,2.7,3.4,4.4,4.6c1.8,1.2,3.9,2,6,2.3c0.8,0.1,1.6,0.2,2.5,0.2 c1.5,0,3.1-0.2,4.6-0.6c2.7-0.6,5.3-1.6,7.7-2.9c2-1.2,3.7-2.6,5.3-4.3c1.5-1.7,2.8-3.6,4-5.5c0.4-0.7,0.8-1.3,1.2-2 c0.4,1.3,1,2.5,1.7,3.7c0.9,1.4,2.2,2.6,3.8,3.3c1.9,0.8,4,0.9,5.9,0.3c1.9-0.5,3.7-1.4,5.3-2.7c1.8-1.4,3.4-2.9,4.9-4.5 c1.6-1.8,3.2-3.7,4.6-5.7c1.5-2,2.9-4,4.1-6s2.4-3.9,3.4-5.7c0.7-1.2,1.2-2.2,1.7-3.1c1.1-1.5,2.1-3,3.2-4.5c1.1-1.5,2.2-3,3.4-4.5 s2.4-2.9,3.6-4.2c1.3-1.4,2.7-2.7,4.1-4c1.3-1.2,2.6-2.4,4-3.6c1.3-1.2,2.7-2.4,4-3.6s2.7-2.3,4.1-3.4l0.4-0.3l-0.2,1.2 c-0.4,2.5-0.8,5.3-1.5,8.3s-1.4,6.2-2.2,9.5c-0.8,3-1.8,6-2.9,8.8c-0.9,2.3-2.1,4.6-3.6,6.6c-0.8,1.3-2,2.2-3.4,2.7 c-0.2,0.1-0.5,0.1-0.7,0c-0.3-0.2-0.6-0.4-0.8-0.7c-0.4-0.5-0.7-1.1-1.1-1.7c-0.4-0.8-0.8-1.5-1.2-2.1c-0.5-0.8-1.1-1.5-1.9-2 c-1-0.7-2.3-0.9-3.5-0.6c-1.2,0.3-2.2,1-2.9,2c-0.8,1.1-1.1,2.5-0.8,3.8c0.4,1.7,1.1,3.4,2.1,4.9c1,1.4,2.2,2.7,3.6,3.7 c1.4,1,3,1.8,4.7,2.1c0.8,0.2,1.7,0.3,2.5,0.3c1,0,2-0.1,3-0.4c0.6-0.1,1.2-0.3,1.7-0.6l1.3-0.6h0.1c3.4-1.6,6.6-3.5,9.6-5.7 c3.1-2.2,6-4.6,8.8-7.2c2.7-2.6,5.2-5.4,7.5-8.4c2.3-3,4.3-6.1,6-9.5c0.1-0.1,0.1-0.2,0.2-0.4l6.2-11.3l-0.3,3 c-0.3,2.3-0.5,4.6-0.8,6.9l-0.7,6.8c-0.2,2.2-0.4,4.2-0.6,5.9s-0.3,3.1-0.4,4.2c-0.2,0.8-0.2,1.6-0.1,2.5c0.3,1.3,1.2,2.5,2.4,3.1 c1.1,0.6,2.4,0.7,3.6,0.4c0.9-0.2,1.8-0.7,2.4-1.4c0.7-0.7,1.2-1.7,1.2-2.8l2.8-25.5l0.4-2.5c0.1-0.8,0.3-1.7,0.5-2.5 s0.4-1.6,0.7-2.4c0.2-0.7,0.5-1.4,0.8-2c0.7-1.2,1.6-2.4,2.6-3.4c1.3-1.5,2.7-2.9,4.2-4.1c1.5-1.3,3-2.5,4.7-3.5 c1.1-0.8,2.3-1.4,3.6-1.8c0.3-0.1,0.6-0.1,0.9,0c0.2,0.1,0.4,0.2,0.6,0.4c0.3,0.3,0.5,0.6,0.6,0.9c0.2,0.5,0.4,1,0.5,1.6 c0.5,2.3,0.7,4.6,0.5,6.9c-0.2,2.5-0.5,5-0.9,7.6s-0.7,5.3-0.9,7.9c-0.2,2.8,0,5.6,0.7,8.4c0.3,1.3,0.8,2.5,1.4,3.6 c0.6,1.2,1.4,2.2,2.4,3.1c1,0.9,2.2,1.5,3.5,1.8c1.5,0.4,3,0.4,4.5,0c2-0.5,3.9-1.4,5.6-2.7c1.8-1.3,3.5-2.8,5.1-4.4 c1.7-1.7,3.3-3.6,4.8-5.5c1.5-2,2.9-4,4.2-5.9s2.5-3.9,3.5-5.7s1.9-3.4,2.6-4.8v-0.1c0.4-0.6,0.8-1.2,1.3-2c0.7-1.2,1.4-2.4,2.2-3.8 c-0.1,1.1-0.1,2.2-0.1,3.3c0,1.8,0.3,3.5,0.7,5.2c0.5,2.3,1.4,4.5,2.6,6.5c1.1,2,2.6,3.8,4.4,5.3c1.8,1.5,3.8,2.6,6.1,3.2 c1.2,0.3,2.4,0.5,3.6,0.5c1.3,0,2.6-0.2,3.9-0.5c3.3-0.8,6.4-2.3,9.1-4.4c2.8-2.1,5.2-4.5,7.4-7.2c3.3-4.3,5.9-9.1,7.6-14.2 c1.1,0.7,2.3,1.3,3.6,1.6c1.3,0.4,2.7,0.6,4.1,0.7c1.3,0.1,2.5,0,3.8-0.3c1-0.2,1.9-0.6,2.7-1.1c0.9-0.6,1.8-1.2,2.6-1.9 c1-0.7,1.9-1.5,2.8-2.3c0.9-0.8,1.7-1.8,2.4-2.8c0.6-0.9,1.2-1.9,1.6-2.9c0.1-0.3,0.2-0.5,0.2-0.8l0.6-0.9c0.7-1.1,1.4-2.3,2.1-3.6 c-0.1,0.6-0.1,1.1-0.2,1.7c-0.3,2.4-0.4,4.7-0.4,7.1c0,2.4,0.3,4.8,0.8,7.2c0.3,1.3,0.8,2.5,1.4,3.6c0.6,1.1,1.4,2.2,2.4,3 c1,0.8,2.2,1.5,3.5,1.8c0.6,0.2,1.3,0.2,2,0.2c0.8,0,1.6-0.1,2.4-0.3c2-0.5,4-1.4,5.7-2.7c1.8-1.3,3.6-2.8,5.1-4.4 c1.7-1.7,3.3-3.6,4.8-5.5c1.5-2,2.9-3.9,4.2-5.9s2.5-3.9,3.5-5.7s1.9-3.4,2.6-4.8c0.1-0.2,0.2-0.4,0.3-0.7c0.4-0.6,0.8-1.2,1.3-1.9 c0.3-0.5,0.6-1,0.9-1.5c0,0.4-0.1,0.7-0.1,1.1c-0.2,2.4-0.3,4.7-0.3,7.1c0,2.2,0.2,4.5,0.7,6.6c0.3,1.3,0.8,2.5,1.3,3.6 c0.6,1.2,1.4,2.2,2.4,3.1c1,0.9,2.2,1.5,3.5,1.9c0.7,0.2,1.3,0.3,2,0.3c0.8,0,1.6-0.1,2.4-0.3c2-0.5,4-1.4,5.7-2.7 c1.8-1.3,3.6-2.8,5.2-4.4c1.7-1.7,3.3-3.6,4.8-5.5c1.5-2,2.9-4,4.2-5.9s2.5-3.9,3.6-5.7s2-3.4,2.7-4.8c0.1-0.1,0.1-0.3,0.2-0.5 c0.5-0.6,0.9-1.3,1.4-2.1c0.3-0.5,0.6-1,0.9-1.5c0,0.4-0.1,0.7-0.1,1.1c-0.2,2.4-0.3,4.7-0.3,7.1c0,2.2,0.2,4.5,0.7,6.6 c0.3,1.3,0.8,2.5,1.3,3.6c0.6,1.2,1.4,2.2,2.4,3.1c1,0.9,2.2,1.5,3.5,1.9c0.7,0.2,1.3,0.3,2,0.3c0.8,0,1.6-0.1,2.4-0.3 c2-0.5,4-1.4,5.7-2.7c1.8-1.3,3.6-2.8,5.2-4.4c1.7-1.7,3.3-3.6,4.8-5.5c1.5-2,2.9-4,4.2-5.9c0.4-0.5,0.7-1.1,1-1.6 c0.3,1.3,0.7,2.5,1.1,3.8c0.6,1.7,1.4,3.4,2.4,4.9c1,1.4,2.3,2.6,3.8,3.5c1.1,0.6,2.3,0.9,3.5,0.9c0.7,0,1.3-0.1,2-0.2 c3.1-0.7,6.1-1.8,8.9-3.4c2.6-1.5,5.1-3.2,7.4-5.2c2.2-1.9,4.3-4,6.2-6.2c1.8-2.1,3.5-4.3,5-6.4s2.9-4.1,4.1-5.9s2.2-3.3,3.1-4.6 c0.5-0.6,0.7-1.4,0.8-2.2C662.7,576.4,662.7,575.9,662.7,575.3z M623.3,579.3c0.6-1.5,1.4-3,2.3-4.4c1.1-1.6,2.2-3.1,3.5-4.6 c1.3-1.4,2.6-2.8,4-4.1c1.2-1.1,2.4-2.1,3.7-3l0.3-0.2c0,0.7,0,1.3-0.2,2c-0.2,1.2-0.6,2.3-1.1,3.3c-0.7,1.4-1.6,2.7-2.7,3.9 c-1.5,1.6-3.2,3.1-5.1,4.3C626.5,577.6,624.9,578.5,623.3,579.3L623.3,579.3z M597,543.7c0.3-1.8,0.7-3.7,1.1-5.5 c0.5-2.1,1.1-4.2,2-6.3c0.7-1.7,1.7-3.3,2.9-4.7c0.2-0.2,0.4-0.5,0.7-0.7c-0.5,1.6-1.1,3.4-1.8,5.3c-0.9,2.3-1.8,4.7-2.9,7.2 C598.3,540.7,597.7,542.2,597,543.7z M556.4,553.4c0.3-1.8,0.7-3.7,1.1-5.5c0.5-2.1,1.1-4.2,2-6.3c0.7-1.7,1.7-3.3,2.9-4.7 c0.2-0.2,0.4-0.5,0.7-0.7c-0.5,1.6-1.1,3.3-1.8,5.3c-0.8,2.3-1.8,4.7-2.9,7.2C557.7,550.5,557.1,552,556.4,553.4L556.4,553.4z M374.2,593.8c0.3-1.5,0.6-3,1-4.5c0.4-1.7,1.1-3.4,1.9-5c0.7-1.4,1.5-2.6,2.6-3.7c0.2-0.2,0.4-0.4,0.6-0.5 c-0.4,1.3-0.9,2.7-1.6,4.3c-0.8,1.8-1.7,3.8-2.7,5.8C375.4,591.3,374.8,592.6,374.2,593.8z M253.2,688.8c-2.3,1.7-5,2.9-7.8,3.6 c-2.3,0.6-4.1,0.4-5.3-0.6c-1.5-1.4-2.6-3.2-2.9-5.2c-0.7-2.8-0.8-5.7-0.2-8.6c0.6-2.7,1.7-5.3,3.2-7.7c1.6-2.5,3.6-4.7,5.8-6.7 c2.3-2.1,4.9-4,7.5-5.6c2.6-1.6,5.4-3.1,8.2-4.3c1.7-0.7,3.3-1.4,4.9-1.9L266,657c-0.3,2.8-0.6,5.6-0.9,8.4c-0.3,3.1-1,6.2-2,9.2 c-1,2.8-2.3,5.5-4,8C257.5,685,255.5,687.1,253.2,688.8L253.2,688.8z"/></svg>