<svg xmlns="http://www.w3.org/2000/svg" viewBox="0 0 800 800"><defs><style>.a{fill:#fff;}</style></defs><title>WordCampUS-Logo</title><path class="a" d="M615.63,81.31a11.47,11.47,0,0,0-16.29-5.17c-34.87,20.56-69.29,31-102.3,31-55.32,0-87.77-29.26-88.09-29.55a11.47,11.47,0,0,0-13.72-1.37c-.43.26-45,26.67-103.13,26.67a181.45,181.45,0,0,1-95.34-26.67,11.47,11.47,0,0,0-16.49,5.29C150.92,150,144,217.07,159.6,280.85c12.48,50.89,39.27,99.57,79.63,144.71,19.65,22,53.41,55,102.6,87.35,29.48,19.4,50.39,29.32,51.27,29.73a11.47,11.47,0,0,0,9.71,0c.89-.41,22.2-10.32,52.17-29.72,27.61-17.87,68.09-47.52,104.12-87.35,40.86-45.16,67.77-93.88,80-144.82C654.4,217,646.51,149.85,615.63,81.31ZM190.82,86a192.74,192.74,0,0,0,101.29,28.33C354.44,114.36,401.18,86,401.18,86S436.6,118.61,497,118.61c30.22,0,66.69-8.14,108.13-32.58,19.78,43.9,28.81,84.73,29.92,122.41l-472-3.21C164.12,168.44,172.54,128.68,190.82,86ZM398,532.25S165.49,422.7,163,216.71l472.19,3.21h0C632.5,423.84,398,532.25,398,532.25Z"/><path class="a" d="M257.25,136.39a4.28,4.28,0,0,0-1.34-.19h0c-1,0-1.89,0-2.86,0-2.55.06-4.2,1.55-4.65,4.22-.08.57-.2,1.3-.36,2.2l-.32,2.2c-.06.33-.31,1.93-1.74,11.13-.35,2.25-1.42,9-1.5,9.53v.08l-.15,1.09c-.45-2.82-.74-4.5-.85-5.11-.39-2.42-1.13-6.79-2.19-13q-.78-4.61-1.42-8.3a4.67,4.67,0,0,0-2.78-3.63,5.87,5.87,0,0,0-2-.39c-.41,0-.92,0-1.55,0l-1.42,0a4.37,4.37,0,0,0-3,1.18,5,5,0,0,0-1.56,2.94q-.09.64-.22,1.39-.39,2.3-2,11.8c-1.94,11.54-2,11.95-2,12l-.17,1.09c-.37-2.54-.61-4.12-.7-4.75-.17-1-.84-5.2-2-12.57L219,140.27a4.84,4.84,0,0,0-1.48-2.82,4,4,0,0,0-2.68-1.19c-1.64,0-3,0-4,0a3.07,3.07,0,0,0-2.16,1.1,3.49,3.49,0,0,0-.8,2.31,7.1,7.1,0,0,0,.15,1.27h0a1.08,1.08,0,0,0,.06.19c0,.34.12.76.22,1.27l.82,4.42c1.93,10.09,2.92,15.29,3,15.85v0q1.19,6.4,3.06,16.1c.54,2.83.86,4.52,1,5a4.45,4.45,0,0,0,4.36,3.84c.67,0,1.33,0,2,0,.86,0,1.69,0,2.49-.08,1.61-.08,3.67-.83,4.39-4,0-.21.09-.45.16-.76q2.39-12.59,3-16l1.1-5.92c.46,2.5.55,3,.56,3.1q.84,4.44,2.84,14.79c.5,2.58.81,4.18.94,4.82a4.45,4.45,0,0,0,4.41,3.86c1,0,2.44,0,4.34,0a4.31,4.31,0,0,0,3.43-1.72,4.62,4.62,0,0,0,1.05-2.32h-.06l0-.16h0s0-.07,0-.1c.24-.89.53-2.42,1-5q.35-2,1.67-9.06,1.06-5.61,1.71-9.08,3.13-16.61,3.61-19.17a7.52,7.52,0,0,0,.11-1.69A3.27,3.27,0,0,0,257.25,136.39Z"/><path class="a" d="M306.91,150.29a23.73,23.73,0,0,0-3.18-7.56,13.46,13.46,0,0,0-7-5.48,16.34,16.34,0,0,0-8.22-.48,13.7,13.7,0,0,0-9.57,7.16,23.72,23.72,0,0,0-2.06,4.9,45,45,0,0,0-1.63,11.38,59.84,59.84,0,0,0,.16,6.54,41.28,41.28,0,0,0,1.29,7.91,22.18,22.18,0,0,0,3.3,7.26,13.26,13.26,0,0,0,7.43,5.26,16.48,16.48,0,0,0,4.26.56,17.24,17.24,0,0,0,2.25-.15,13.3,13.3,0,0,0,8.68-4.63,17.2,17.2,0,0,0,2.2-3.27,26.4,26.4,0,0,0,2.32-6.67,55.14,55.14,0,0,0,1.09-10.93c-.19-4.47-.22-4.69-.23-4.73A40.64,40.64,0,0,0,306.91,150.29Zm-9.12,11.42a53.21,53.21,0,0,1-.6,7.92,15.53,15.53,0,0,1-1.14,4,9.6,9.6,0,0,1-1,1.79,3.93,3.93,0,0,1-3.24,1.64,4,4,0,0,1-3.31-1.54,9.3,9.3,0,0,1-1.18-2A21.55,21.55,0,0,1,286,168.2a55,55,0,0,1-.16-10.73,27,27,0,0,1,.92-5.44,10.63,10.63,0,0,1,1.32-2.88,4,4,0,0,1,3.41-2,5.51,5.51,0,0,1,1.47.22,4,4,0,0,1,2,1.39,9.16,9.16,0,0,1,1.43,2.73,23.26,23.26,0,0,1,1,4.31c.1.73.17,1.42.22,2C297.6,158,297.63,158.75,297.79,161.7Z"/><path class="a" d="M351.54,163.1a21.4,21.4,0,0,0,1.87-8.63,13.64,13.64,0,0,0-.13-1.89,17.44,17.44,0,0,0-4.58-11.19c-3.09-3.27-7.43-5-12.91-5.19h0a7.8,7.8,0,0,0-1-.07h-.66a35,35,0,0,0-4.72,0q-1,0-1.95,0a3.65,3.65,0,0,0-2.72,1.13,4.16,4.16,0,0,0-1.22,2.7,10.39,10.39,0,0,0,0,1.26q0,11.8,0,35.39v5c0,.91,0,1.63.07,2.19a4,4,0,0,0,1.06,2.6,3.55,3.55,0,0,0,2.49,1.26c.55,0,1.12.07,1.7.07s1.17,0,1.77-.07a3.68,3.68,0,0,0,3.54-3.11,7.39,7.39,0,0,0,.15-1.57q0-.16,0-3l0-3.76c0-1.29,0-1.6,0-1.72a1.81,1.81,0,0,1,1.22-1.81c.08,0,.36-.06,1.21-.15.07,0,.15,0,.32.18a11.41,11.41,0,0,1,.74.95,12.77,12.77,0,0,1,.7,1.59c.23.56.78,2,1.63,4.3q1,2.69,1.65,4.36a5.66,5.66,0,0,0,5.32,3.81H350a8.15,8.15,0,0,0,1.08-.12l.11,0a2.83,2.83,0,0,0,2-3.6c-.07-.29-.22-.73-.45-1.37h0v0l-5.1-13.39-.18-.51.06,0A16.37,16.37,0,0,0,351.54,163.1Zm-9.29-5.6-1.2,3.63-3.93.38h-1a1.58,1.58,0,0,1-1.24-.51,2,2,0,0,1-.58-1.51V149.23a2.07,2.07,0,0,1,.62-1.7,1.92,1.92,0,0,1,1.42-.58h.07a8,8,0,0,1,2.6.48,5.24,5.24,0,0,1,3.26,3.51A10.52,10.52,0,0,1,342.25,157.5Z"/><path class="a" d="M396.21,145.93c-3.3-6.46-8.15-9.73-14.41-9.73l-9.41,0a3.52,3.52,0,0,0-2.45.91,3.77,3.77,0,0,0-1.32,2.29,9,9,0,0,0-.15,1.76V162a1,1,0,0,0,0,.25v2.59q0,17.8,0,18.17a7.22,7.22,0,0,0,.07,1.1,4,4,0,0,0,1.19,2.49,3.75,3.75,0,0,0,2.85,1.14l2.74,0c1.15,0,2.09,0,2.73,0s1.75,0,3.4,0c5.27,0,9.71-2.59,13.2-7.61a28.29,28.29,0,0,0,4.93-15.85v0A35.21,35.21,0,0,0,396.21,145.93Zm-10.12,28.34a5.4,5.4,0,0,1-5.21,2.44,1.61,1.61,0,0,1-1.08-.58,1.9,1.9,0,0,1-.5-1.3c0-.41,0-1.25,0-2.49V149.06a2.13,2.13,0,0,1,.52-1.32,1.52,1.52,0,0,1,1.07-.56,6.8,6.8,0,0,1,.73,0,5,5,0,0,1,3.75,1.58,9.49,9.49,0,0,1,2,3.15,20,20,0,0,1,1.16,4.57,39.73,39.73,0,0,1,.19,9.71,22.41,22.41,0,0,1-1.36,5.85A9.73,9.73,0,0,1,386.09,174.27Z"/><path class="a" d="M427.62,150.06a7.27,7.27,0,0,1,1.38-2,4.09,4.09,0,0,1,2.75-1.26,3.85,3.85,0,0,1,3.08,1.2,8,8,0,0,1,1.4,1.85,6.07,6.07,0,0,0,.48.8,3.36,3.36,0,0,0,3.53,1.46,4,4,0,0,0,1.42-.57,14,14,0,0,0,3.68-3.22,3.38,3.38,0,0,0,.6-3.64,14.93,14.93,0,0,0-2-3,13.56,13.56,0,0,0-7.79-5.14,17.08,17.08,0,0,0-8.15,0,13.61,13.61,0,0,0-7.87,5.22,21.43,21.43,0,0,0-3,6,39,39,0,0,0-1.83,10.58c-.09,2-.09,4.32,0,6.79a41.31,41.31,0,0,0,1.22,8.65,23.29,23.29,0,0,0,3.18,7.5,13.77,13.77,0,0,0,8.32,5.91,17.22,17.22,0,0,0,4,.47,18.84,18.84,0,0,0,3.24-.29,13.4,13.4,0,0,0,7.8-4.25,13.61,13.61,0,0,0,2.58-3.86,2.9,2.9,0,0,0,.23-1c0-2.15-1.56-4-4.71-5.59a2.29,2.29,0,0,0-.4-.19,3.27,3.27,0,0,0-4.4,1.21c-.05.08-.13.22-.19.35l-.17.26c-.93,1.19-1.14,1.41-1.19,1.46a4,4,0,0,1-3.1,1.22,4.32,4.32,0,0,1-2.77-1.29,8.07,8.07,0,0,1-1.53-2.33,18.69,18.69,0,0,1-1.15-4,45.56,45.56,0,0,1-.6-8.19,38.86,38.86,0,0,1,.63-6.94A15.51,15.51,0,0,1,427.62,150.06Z"/><path class="a" d="M494.33,182.6Q491,167.75,489,158.7l-4.13-18.5a5.29,5.29,0,0,0-1.59-2.77,4.64,4.64,0,0,0-3.33-1.37h-3.55a4.72,4.72,0,0,0-3.39,1.4,5.44,5.44,0,0,0-1.57,2.84c-.08.42-.7,3.25-1.83,8.4q-.84,3.82-6.61,29.88c-.64,2.88-1,4.46-1.07,4.77a3.62,3.62,0,0,0,.53,3,3.46,3.46,0,0,0,2.57,1.41h3.05a4,4,0,0,0,1.07-.13,4.71,4.71,0,0,0,3.77-3.76c0-.09.05-.16.32-1.63a2.8,2.8,0,0,1,1-1.68,2.34,2.34,0,0,1,1.52-.61c1.42,0,3.05,0,4.82,0a2.32,2.32,0,0,1,1.55.63,2.62,2.62,0,0,1,.92,1.53c0,.15.09.36.15.62s.13.62.16.73c.58,2.73,2.29,4.2,5,4.26h2.59a10.45,10.45,0,0,0,1.08-.12,3.27,3.27,0,0,0,2-1.29,3.36,3.36,0,0,0,.58-2.35A13.28,13.28,0,0,0,494.33,182.6ZM477,162.52c.24-1.21.3-1.46.31-1.48a1.11,1.11,0,0,0,0-.14c0-.09.12-.6.31-1.57a2.92,2.92,0,0,0,.08-.3,1.09,1.09,0,0,0,0-.26,3.5,3.5,0,0,1,.47-1.31h0a3.41,3.41,0,0,1,.34.95q.35,1.89.81,4.26l.81,4.3.23,1.2c0,.27-.2.56-1.06.62a14.51,14.51,0,0,1-2.54,0c-.3,0-.56,0-.64-.13s-.2-.56-.06-1.41C476.14,167.16,476.28,166.35,477,162.52Z"/><path class="a" d="M547.21,141.71a19.11,19.11,0,0,0-.07-1.94,3.92,3.92,0,0,0-.31-1.46,3.75,3.75,0,0,0-3.47-2.52c-.73,0-1.92,0-3.63,0a6.34,6.34,0,0,0-5.74,3.58q-.55,1-1.91,3.63l-1.94,3.69-1.9,3.68h0l-.38.73-.49-1-2.58-4.91-2.59-4.93q-.57-1.06-.65-1.21l-.07-.12a6.14,6.14,0,0,0-4.8-3.11,36.27,36.27,0,0,0-4.45,0,3.73,3.73,0,0,0-3.65,3.36,8.84,8.84,0,0,0-.11,1.53c0,.9,0,2.31,0,4.23v16.38c0,3.12,0,10.4,0,21.68,0,.41,0,.65,0,.8a4.08,4.08,0,0,0,1.16,2.71,3.69,3.69,0,0,0,2.67,1.2c.49,0,1,0,1.5,0s1,0,1.52,0a3.87,3.87,0,0,0,2.76-1.2,4.31,4.31,0,0,0,1.16-2.83V156.21c.35.67.73,1.45,1.15,2.34.63,1.3,1.2,2.41,1.7,3.32q1.42,2.58,3.13,5.65a1.09,1.09,0,0,0,.14.2,2.94,2.94,0,0,0,3.17,1.09,2.7,2.7,0,0,0,1.32-.92l.07-.11,6.38-10.86v0q0,1.29,0,2.09,0,3.48,0,8.87v15.65a4.47,4.47,0,0,0,1.22,2.9,3.94,3.94,0,0,0,2.89,1.23c1,0,1.91,0,2.7,0a3.88,3.88,0,0,0,2.76-1.17,4.32,4.32,0,0,0,1.26-2.9V164.44q0-12,0-18Z"/><path class="a" d="M591,142.5c-3.12-4.06-7.81-6.21-13.95-6.4h0a62.39,62.39,0,0,0-6.78,0h-1.15a5.75,5.75,0,0,0-.89,0,3.77,3.77,0,0,0-2.65,1.31,4.32,4.32,0,0,0-1.08,2.89v21.53a1,1,0,0,0,0,.25v21.69s0,.07,0,.11a4.17,4.17,0,0,0,1.32,2.76,3.61,3.61,0,0,0,2.61,1.1l3.19,0a3.65,3.65,0,0,0,2.49-1.2,4.25,4.25,0,0,0,1.12-2.47,1,1,0,0,0,0-.13v-1q0-5.71,0-6.22s0,0,0,0a8,8,0,0,1,0-1,1.85,1.85,0,0,1,1.2-1.55,5.36,5.36,0,0,1,.85-.14l3-.3h.17a15.51,15.51,0,0,0,11.71-9.08,22.35,22.35,0,0,0,2-7.07,9.24,9.24,0,0,0,.24-1.75C594.91,150.49,593.72,146,591,142.5ZM583.72,155a9.8,9.8,0,0,1-.73,4h0a5.55,5.55,0,0,1-5.61,3.9c-1,0-1.93-.21-2.13-2.08a7.43,7.43,0,0,1,0-.77V149.67c0-.38,0-.72.09-1a2,2,0,0,1,.65-1.21,1.42,1.42,0,0,1,1-.45h.47a5.57,5.57,0,0,1,5.18,3,9.54,9.54,0,0,1,1.12,4.14Z"/><path class="a" d="M369.3,413.91c7.89-11.23,11.8-26.74,11.63-46.12v-2c0-.17,0-.33,0-.49l.24-2.82V292.59q0-20.88-.13-33c-.06-5.08-1.7-6.74-6.78-6.85-2.95,0-6.55,0-10.68.13-3.84.11-5,1.69-5.6,4.37a11.35,11.35,0,0,0-.25,3q0,3.15.13,8.79v90.22a179.17,179.17,0,0,1-1.78,24.37,35.31,35.31,0,0,1-8,17.86,24.52,24.52,0,0,1-37.78-.69,33.91,33.91,0,0,1-7.13-14.83,129.49,129.49,0,0,1-2.51-24.18q-.13-38.63-.13-69.43V258.45a6.67,6.67,0,0,0-1.92-3.92,5.57,5.57,0,0,0-3.87-1.66c-4.07-.16-8.17-.16-12.08,0a5.61,5.61,0,0,0-3.78,1.79,5.38,5.38,0,0,0-1.65,3.6v3.67q0,64.62.13,110.85v2.95a74.2,74.2,0,0,0,3.33,21.59c2.66,8.77,6.86,16,12.52,21.47,9.43,9.12,19.39,13.7,30.39,14a5.79,5.79,0,0,1,1.19-.12h1.06a7.1,7.1,0,0,1,1.43.15C346.54,433.17,360.2,427,369.3,413.91Z"/><path class="a" d="M470.26,432.91a53.58,53.58,0,0,0,6.88-.73c9.42-1.23,17.38-4.2,23.85-8.86,11.9-8.65,17.93-20.22,18.4-35.37,0-.18,0-.35,0-.53.85-6.84-.24-14.35-3.27-22.3-2.5-6.85-7.36-13.18-14.48-18.88a89.42,89.42,0,0,0-14.54-9.39c-1.7-.85-4.75-2.42-9.05-4.66-3.9-1.95-7-3.53-9.15-4.71a122.6,122.6,0,0,1-11.24-6.54,50,50,0,0,1-7.62-6.53,24.13,24.13,0,0,1-6.76-20.36c1.07-9.41,6.54-15.71,15.8-18.2,7.71-2,15.14-.4,22.15,4.6a36.72,36.72,0,0,1,9.84,10.89c.5.82,1,1.66,1.45,2.52h0a4.18,4.18,0,0,0,4.9,1.89,6.18,6.18,0,0,0,2.26-1q4.6-2.76,14-8.66a7.74,7.74,0,0,0,.41-.74,3.12,3.12,0,0,0,.35-.83l-.08-.16c-.07-.13-.13-.27-.19-.41a52.16,52.16,0,0,0-7.7-12.44,46,46,0,0,0-17.86-13.75A55.5,55.5,0,0,0,452.93,255c-13.51,3.32-22.88,11.12-28.66,23.85-3.15,6.78-4.45,14.63-3.9,23.39a41.25,41.25,0,0,0,10.11,25.17,62.81,62.81,0,0,0,9.78,9.15,107.75,107.75,0,0,0,14.32,9.25c1.08.64,3.21,1.86,8.38,4.65,3.56,1.87,6.49,3.5,8.64,4.81,3.38,1.9,7.57,4.48,12.29,7.56a37,37,0,0,1,8.16,7.91c4.43,5.48,5.9,12.43,4.33,20.63-1.69,8.8-6.62,15.1-14.26,18.22-10.65,4.42-21.73,3.37-32.91-3.15-6.38-3.7-11-8.43-13.74-14a6.18,6.18,0,0,0-1.54-.24,5.79,5.79,0,0,1-1.49-.28,13.51,13.51,0,0,0-4.51,1.31,20.25,20.25,0,0,0-6.94,4.6,5.79,5.79,0,0,1-.87.77c-.72.51-1.57,1.42-1.75,3.88a7.56,7.56,0,0,0,1.34,4.93c9.07,9.38,17,15.81,23.51,19.11l.31.17A48.28,48.28,0,0,0,470.26,432.91Z"/><path class="a" d="M507.24,574.73a4.75,4.75,0,0,0,2.59.78,4.88,4.88,0,0,0,1.13-.14,4.94,4.94,0,0,0,2.51-1.48,4.81,4.81,0,0,0,1.27-2.85q.06-.75.28-2.42t.44-3.61c.15-1.26.27-2.46.35-3.57a9.8,9.8,0,0,0-.08-2.87,4.89,4.89,0,0,0-5.94-3.64,4.64,4.64,0,0,0-2.55,1.61,5.16,5.16,0,0,0-1.1,2.58c0,.05,0,.11,0,.16,0,.25-.07.84-.26,2.24-.16,1.2-.31,2.47-.45,3.79s-.25,2.52-.34,3.63a8.85,8.85,0,0,0,0,2.76A4.87,4.87,0,0,0,507.24,574.73Z"/><path class="a" d="M662.66,575.3a4.47,4.47,0,0,0-2.52-3.09,5.23,5.23,0,0,0-3.5-.4c-1.17.28-2.25,1.2-3.5,3-.91,1.29-2,2.91-3.27,4.83s-2.69,4-4.33,6.19a58.38,58.38,0,0,1-5.44,6.38,43.31,43.31,0,0,1-6.65,5.52,24.64,24.64,0,0,1-7.4,3.37,6.68,6.68,0,0,1-.85-1.46,22.7,22.7,0,0,1-1-2.82c-.32-1.1-.6-2.16-.82-3.16a25.48,25.48,0,0,1-.45-2.61v-.11a65.26,65.26,0,0,0,9.44-5.66,45.59,45.59,0,0,0,8.44-7.78,28,28,0,0,0,5.09-8.94,17.42,17.42,0,0,0,.47-9.74,8.58,8.58,0,0,0-3.35-5.14,7.48,7.48,0,0,0-6.37-1.07,17.59,17.59,0,0,0-5.38,2.46,33,33,0,0,0-5.38,4.44,54.63,54.63,0,0,0-5,5.85,46.81,46.81,0,0,0-4.26,6.9,38.91,38.91,0,0,0-2.86,7.53c-.24.93-.42,1.85-.57,2.77a8.13,8.13,0,0,0-2.52,2.59c-.88,1.27-1.91,2.85-3,4.72s-2.36,3.82-3.71,6a71.72,71.72,0,0,1-4.17,6,36.39,36.39,0,0,1-4.37,4.73,9.38,9.38,0,0,1-3.65,2.15,1.84,1.84,0,0,1-.14-.36c-.11-.38-.2-.73-.28-1.06a14.74,14.74,0,0,1-.4-2.95c0-1.08,0-2.16,0-3.26,0-.43,0-1.36.22-3.38q.22-2.51.55-5.7t.73-6.68q.4-3.47.78-6.5t.67-5.11a19.19,19.19,0,0,1,.35-2.13,29.81,29.81,0,0,1,2.12-4.82c1-1.79,1.87-3.52,2.68-5.18,1.09-2.33,2.27-4.76,3.49-7.23s2.46-5,3.64-7.49,2.36-5.07,3.45-7.61,2.11-5.13,3-7.63a40.79,40.79,0,0,0,1.42-4.82,12.3,12.3,0,0,0,0-5.69,7.12,7.12,0,0,0-3.6-5,8.3,8.3,0,0,0-5.89-.55,17.28,17.28,0,0,0-10,6.33,24,24,0,0,0-2.91,4.84,47.79,47.79,0,0,0-2.06,5.43,50.91,50.91,0,0,0-1.21,5.06c-.37,1.93-.71,4.06-1,6.32s-.57,4.55-.85,7-.52,4.73-.74,7l-.63,6.36q-.27,2.69-.44,4.69-.52.91-1.57,2.69-1.34,2.27-3,5.18t-3.45,6.13c-1.2,2.15-2.3,4.19-3.28,6.06s-1.8,3.55-2.42,5l-.14.34c-.24.29-.48.61-.74,1-.88,1.27-1.91,2.86-3,4.72s-2.36,3.82-3.71,6a71.59,71.59,0,0,1-4.17,6,36.33,36.33,0,0,1-4.37,4.73,9.39,9.39,0,0,1-3.65,2.15A1.76,1.76,0,0,1,551,618q-.17-.57-.28-1.06a14.78,14.78,0,0,1-.4-2.95c0-1.08,0-2.16,0-3.26,0-.43,0-1.36.22-3.37q.22-2.51.55-5.7t.73-6.68q.4-3.47.78-6.5t.67-5.11a18.81,18.81,0,0,1,.35-2.13,29.8,29.8,0,0,1,2.12-4.82c1-1.79,1.87-3.53,2.68-5.18,1.1-2.34,2.27-4.77,3.5-7.24s2.46-5,3.64-7.49,2.36-5.07,3.46-7.61,2.11-5.13,3-7.63a40.88,40.88,0,0,0,1.42-4.83,12.3,12.3,0,0,0,0-5.69,7.12,7.12,0,0,0-3.6-5,8.3,8.3,0,0,0-5.89-.55,17.27,17.27,0,0,0-10,6.33,24,24,0,0,0-2.91,4.84,48,48,0,0,0-2.06,5.43,51,51,0,0,0-1.21,5.06c-.37,1.93-.71,4.06-1,6.32s-.57,4.55-.85,7-.52,4.73-.74,7l-.63,6.36q-.27,2.69-.44,4.69-.52.91-1.57,2.69-1.34,2.27-3,5.18t-3.45,6.13c-1.2,2.15-2.3,4.19-3.28,6.06s-1.8,3.56-2.42,5l-.27.65-.38.55c-.85,1.28-1.86,2.86-3,4.7s-2.36,3.82-3.71,6a71.76,71.76,0,0,1-4.17,6,38.25,38.25,0,0,1-4.37,4.77,9.19,9.19,0,0,1-3.65,2.18,2.43,2.43,0,0,1-.11-.3c-.11-.38-.2-.73-.28-1.06a20.37,20.37,0,0,1-.41-4.49c0-2,.09-4.19.28-6.55s.45-4.9.77-7.48.66-5.14,1-7.52.67-4.65,1-6.68.56-3.73.72-5a7.67,7.67,0,0,0,.08-.78,4.1,4.1,0,0,0-.12-1.11,5,5,0,0,0-2.06-2.94,4.57,4.57,0,0,0-3.75-.72,5.06,5.06,0,0,0-3.21,2.37l-15.83,28.32c-.44.71-.91,1.47-1.43,2.3a13.9,13.9,0,0,1-1.93,2.38,5.2,5.2,0,0,1-2.52,1.29,3.14,3.14,0,0,1-2-.07,5,5,0,0,1-1.82-1.37,9.42,9.42,0,0,1-1.48-2.41,17.81,17.81,0,0,1-1-2.87,38.47,38.47,0,0,1-1-6.25,43.19,43.19,0,0,0-1.08-7q-.18-.77-.52-1.87a12.31,12.31,0,0,0-1-2.37,6.68,6.68,0,0,0-1.84-2.16,4.06,4.06,0,0,0-3.49-.69,5.21,5.21,0,0,0-3,2,4.6,4.6,0,0,0-.73,3.88c.41,1.71.85,3.37,1.32,5a23.81,23.81,0,0,1,.81,4.14,2.17,2.17,0,0,0,0,.3v.57c0,.06,0,.11,0,.17a47.54,47.54,0,0,1,.19,6.49,32.79,32.79,0,0,1-.91,6.29,34.3,34.3,0,0,1-2.36,6.58,40.83,40.83,0,0,1-4,6.79,31,31,0,0,1-5.18,5.56,14,14,0,0,1-5.69,3,6.14,6.14,0,0,1-5.94-1.37,9,9,0,0,1-2-2.66,16,16,0,0,1-1.34-3.61,17.17,17.17,0,0,1-.39-4.37c0-1.75.18-3.65.42-5.62s.55-4,.9-6.09.7-4.09,1-6,.51-3.67.64-5.25a14.16,14.16,0,0,0-.2-4.34,4.8,4.8,0,0,0-2.25-3.11,5,5,0,0,0-3.74-.51,4.6,4.6,0,0,0-3.08,2.4L416.76,631h0c-.64,1-1.43,2.38-2.33,4s-1.85,3.19-2.92,5-2.19,3.49-3.42,5.25-2.46,3.35-3.71,4.81a27.88,27.88,0,0,1-3.71,3.63,8.62,8.62,0,0,1-2.94,1.63,1.64,1.64,0,0,1-.13-.33c-.1-.36-.2-.7-.27-1a22.05,22.05,0,0,1-.54-6.95c.2-2.5.49-5.05.86-7.59s.67-5.27.88-7.89a26.84,26.84,0,0,0-.67-8.38,17.17,17.17,0,0,0-1.78-4.54,12.29,12.29,0,0,0-3.06-3.6,10.51,10.51,0,0,0-4.29-2,11.69,11.69,0,0,0-5.24.15,18.21,18.21,0,0,0-4.78,2,41.92,41.92,0,0,0-4.52,3c-1.12.86-2.2,1.74-3.23,2.65l.1-1,10.65-19.17q.7-1.3,1.73-3.19c.71-1.3,1.43-2.71,2.14-4.18s1.43-3,2.12-4.64a48.32,48.32,0,0,0,1.79-4.84,31.69,31.69,0,0,0,1.07-4.61,11.63,11.63,0,0,0-.11-4.41,7.12,7.12,0,0,0-3.6-5,8.29,8.29,0,0,0-5.89-.55,17.18,17.18,0,0,0-6,2.68,20.24,20.24,0,0,0-4.42,4.32,25.47,25.47,0,0,0-3.07,5.37,44.55,44.55,0,0,0-2,5.84c-.53,2-1,4-1.29,6s-.58,3.87-.76,5.62l-1.88,17.71-18.6,33.41h0c-.95,1.54-1.89,3-2.81,4.37-1.24,1.83-2.56,3.59-3.93,5.24-1,1.21-2.08,2.4-3.21,3.56q.22-.7.43-1.41c1-3.39,1.87-6.89,2.57-10.4s1.28-7,1.71-10.54.78-6.9,1-10.25a4.47,4.47,0,0,0-.08-1.69,4.72,4.72,0,0,0-2.26-3,4.89,4.89,0,0,0-3.66-.56,24,24,0,0,0-6.68,2.78,53.82,53.82,0,0,0-6.14,4.28c-1.95,1.56-3.84,3.2-5.63,4.88s-3.34,3.1-4.88,4.46q-.85.79-2.52,2.45c-1.11,1.1-2.32,2.37-3.61,3.77s-2.6,2.87-4,4.45-2.63,3.17-3.7,4.65a33,33,0,0,0-2.16,3.38h0c-.55.9-1.26,2.1-2.15,3.67s-1.83,3.16-2.92,4.93-2.28,3.63-3.51,5.47-2.46,3.53-3.7,5.07a29.75,29.75,0,0,1-3.58,3.78,7.93,7.93,0,0,1-2.21,1.45,2,2,0,0,1-.11-.29c-.1-.33-.18-.62-.24-.87a28,28,0,0,1-.66-5.22c-.09-2.08-.09-4.31,0-6.63s.27-4.8.5-7.27.48-4.89.75-7.24.52-4.5.77-6.54.46-3.8.61-5.16a7.46,7.46,0,0,0,.08-.77,4,4,0,0,0-.12-1.12,4.78,4.78,0,0,0-5.86-3.59,81.44,81.44,0,0,0-10.61,3.39,76.54,76.54,0,0,0-10.89,5.32,66,66,0,0,0-10,7.21,43.58,43.58,0,0,0-7.92,9.1,32.29,32.29,0,0,0-4.33,10.22,3.86,3.86,0,0,0-.41.35,5.88,5.88,0,0,0-1.07,1.47,59.54,59.54,0,0,1-6.24,9.3L217,689.86l6.35-56c.07-.83.22-1.85.43-3s.51-2.43.86-3.72a39.2,39.2,0,0,1,1.29-3.88,21.69,21.69,0,0,1,1.68-3.43,11.23,11.23,0,0,1,2-2.45,4.48,4.48,0,0,1,2-1.09,3.51,3.51,0,0,1,2.46.19,2.29,2.29,0,0,1,1.18,1.73,2.79,2.79,0,0,1,.07.83,7.14,7.14,0,0,0,.18,2.09,4.7,4.7,0,0,0,2.28,3,4.92,4.92,0,0,0,3.67.55,4.55,4.55,0,0,0,2.77-1.79,5.57,5.57,0,0,0,1-2.53,9.2,9.2,0,0,0,0-2.4c-.1-.71-.22-1.36-.36-1.93a13.27,13.27,0,0,0-2.07-4.64,12.23,12.23,0,0,0-3.45-3.28,12,12,0,0,0-4.49-1.67,13,13,0,0,0-5.11.23,14.75,14.75,0,0,0-7.36,4.21,25.6,25.6,0,0,0-4.63,6.82,39.73,39.73,0,0,0-2.71,7.85,67.3,67.3,0,0,0-1.32,7.33l-6.36,56-31-65.23A5,5,0,0,0,174,621.3a4.81,4.81,0,0,0-3.43-.43,4.67,4.67,0,0,0-2.52,1.53,5,5,0,0,0-1.16,2.65l-3.94,36.16L159,697.48c-.07.84-.22,1.85-.44,3s-.51,2.43-.86,3.72-.78,2.59-1.27,3.9a20,20,0,0,1-1.64,3.4,10.9,10.9,0,0,1-2,2.44,4.66,4.66,0,0,1-2,1.11,3.56,3.56,0,0,1-2.54-.14c-.21-.11-.84-.44-1.2-1.94a1.73,1.73,0,0,1,0-.59,6.07,6.07,0,0,0-.14-2,4.9,4.9,0,0,0-2.14-3,4.73,4.73,0,0,0-3.73-.61h0a4.49,4.49,0,0,0-2.76,1.8,5.6,5.6,0,0,0-.94,2.47,8.81,8.81,0,0,0,0,2.35c.09.68.21,1.33.35,1.91.93,3.87,2.87,6.65,5.77,8.26a12.22,12.22,0,0,0,6,1.51,16.6,16.6,0,0,0,3.87-.48,5.35,5.35,0,0,0,1.19-.48l.9-.46c.36-.18.71-.38,1.05-.58a7.91,7.91,0,0,0,.83-.55,19.86,19.86,0,0,0,5-4.87,30.17,30.17,0,0,0,3.37-6,37.84,37.84,0,0,0,2.05-6.58c.47-2.19.83-4.38,1.07-6.49l6-55.1,31,65.25a4.74,4.74,0,0,0,2.33,2.32,4.85,4.85,0,0,0,3.21.35,6.84,6.84,0,0,0,3-2c.92-.88,2-2,3.18-3.41s2.45-2.9,3.77-4.58,2.66-3.45,4-5.25c1.11-1.53,2.18-3.05,3.2-4.55a19.6,19.6,0,0,0,1.81,3.72,15.88,15.88,0,0,0,4.45,4.64,14.68,14.68,0,0,0,6,2.35,15.37,15.37,0,0,0,2.47.2,19.62,19.62,0,0,0,4.57-.57,27.59,27.59,0,0,0,7.66-2.92,22.66,22.66,0,0,0,5.27-4.31,36.84,36.84,0,0,0,4-5.51q.59-1,1.24-2a14.37,14.37,0,0,0,1.71,3.68,9,9,0,0,0,3.76,3.27,8.81,8.81,0,0,0,5.9.34,14.54,14.54,0,0,0,5.29-2.66,36.06,36.06,0,0,0,4.91-4.55,70,70,0,0,0,4.6-5.65c1.47-2,2.86-4,4.12-6s2.41-3.87,3.42-5.66c.66-1.16,1.23-2.2,1.72-3.14q1.61-2.32,3.16-4.5c1.07-1.5,2.2-3,3.37-4.47s2.37-2.86,3.64-4.23a54,54,0,0,1,4.13-4q1.94-1.74,3.95-3.59c1.32-1.21,2.66-2.42,4-3.6s2.71-2.3,4.08-3.36l.39-.3-.16,1.19c-.35,2.5-.84,5.31-1.46,8.34s-1.37,6.21-2.24,9.45a73.16,73.16,0,0,1-2.93,8.83,31.81,31.81,0,0,1-3.57,6.62,6.34,6.34,0,0,1-3.4,2.69,1.18,1.18,0,0,1-.7,0,2.21,2.21,0,0,1-.79-.7,14.3,14.3,0,0,1-1.06-1.67c-.41-.75-.83-1.45-1.25-2.09a7.16,7.16,0,0,0-1.9-2,4.18,4.18,0,0,0-3.45-.56,5,5,0,0,0-2.93,2,4.47,4.47,0,0,0-.76,3.76,15,15,0,0,0,2.13,4.88,14.77,14.77,0,0,0,3.57,3.74,12.74,12.74,0,0,0,4.74,2.14,11.5,11.5,0,0,0,2.54.28,12.6,12.6,0,0,0,2.95-.36,10.64,10.64,0,0,0,1.74-.58l1.33-.57.11,0a74.29,74.29,0,0,0,9.64-5.67,72.1,72.1,0,0,0,8.77-7.17,74.17,74.17,0,0,0,7.54-8.44,61.46,61.46,0,0,0,6-9.48c.07-.12.11-.24.16-.36l6.25-11.29-.34,3q-.38,3.43-.75,6.91l-.72,6.76q-.35,3.3-.6,5.88t-.39,4.23a7.58,7.58,0,0,0-.06,2.46,4.53,4.53,0,0,0,2.39,3.07,5.12,5.12,0,0,0,3.58.44,5,5,0,0,0,2.44-1.38,4.56,4.56,0,0,0,1.25-2.75l2.75-25.45.35-2.52c.11-.82.27-1.66.46-2.49s.42-1.64.68-2.42a14.1,14.1,0,0,1,.83-2,19.82,19.82,0,0,1,2.6-3.43,47.34,47.34,0,0,1,4.25-4.14,43.92,43.92,0,0,1,4.68-3.54,12.43,12.43,0,0,1,3.59-1.75,1.75,1.75,0,0,1,.85,0,1.32,1.32,0,0,1,.58.37,3,3,0,0,1,.59.93,10.74,10.74,0,0,1,.51,1.57,21.76,21.76,0,0,1,.53,6.91c-.21,2.48-.5,5-.86,7.6s-.66,5.28-.87,7.91a26.83,26.83,0,0,0,.67,8.38,15.9,15.9,0,0,0,1.35,3.64,10.32,10.32,0,0,0,2.43,3.09,8.86,8.86,0,0,0,3.49,1.84,9,9,0,0,0,4.47,0,16.47,16.47,0,0,0,5.64-2.65,38.06,38.06,0,0,0,5.1-4.38,58.19,58.19,0,0,0,4.77-5.52c1.51-2,2.92-4,4.21-5.93s2.47-3.88,3.49-5.7,1.9-3.42,2.6-4.79l0-.08c.41-.59.83-1.25,1.27-2q1.05-1.75,2.21-3.8c-.07,1.11-.09,2.22-.07,3.31a23.94,23.94,0,0,0,.66,5.2,24.92,24.92,0,0,0,2.57,6.53,19.26,19.26,0,0,0,4.38,5.29,16,16,0,0,0,6.06,3.16,13.57,13.57,0,0,0,3.61.48,16.74,16.74,0,0,0,3.89-.48,24.73,24.73,0,0,0,9.12-4.37,40.28,40.28,0,0,0,7.37-7.23,47,47,0,0,0,7.62-14.18,14.15,14.15,0,0,0,3.63,1.62,16.84,16.84,0,0,0,4.08.66,13.84,13.84,0,0,0,3.79-.32,11.14,11.14,0,0,0,2.72-1.11A27.17,27.17,0,0,0,491,626.7a25.72,25.72,0,0,0,2.79-2.33,18.29,18.29,0,0,0,2.39-2.77,13.85,13.85,0,0,0,1.58-2.93,7,7,0,0,0,.25-.82l.56-.91c.68-1.1,1.39-2.32,2.14-3.62q-.11.83-.2,1.66a64,64,0,0,0-.4,7.08,30.59,30.59,0,0,0,.83,7.16,14.56,14.56,0,0,0,1.4,3.64,10.41,10.41,0,0,0,2.44,3,8.69,8.69,0,0,0,3.49,1.77,8,8,0,0,0,1.95.23,10.4,10.4,0,0,0,2.42-.3,16.74,16.74,0,0,0,5.66-2.65,37.52,37.52,0,0,0,5.13-4.39,60.89,60.89,0,0,0,4.76-5.48c1.51-1.95,2.93-3.94,4.22-5.91s2.47-3.9,3.49-5.74,1.87-3.42,2.58-4.81a5.22,5.22,0,0,0,.27-.66c.41-.58.84-1.21,1.27-1.92q.44-.72.89-1.5-.06.56-.11,1.12a70.64,70.64,0,0,0-.32,7.1,29.27,29.27,0,0,0,.74,6.63,15.9,15.9,0,0,0,1.35,3.64,10.63,10.63,0,0,0,2.37,3.08,8.57,8.57,0,0,0,3.48,1.87,7.79,7.79,0,0,0,2,.26,10.44,10.44,0,0,0,2.43-.3,16.71,16.71,0,0,0,5.66-2.65,38.59,38.59,0,0,0,5.16-4.39,56.55,56.55,0,0,0,4.8-5.53c1.5-2,2.92-4,4.23-5.93s2.52-3.9,3.57-5.7,2-3.44,2.68-4.85a4.53,4.53,0,0,0,.17-.45q.69-.94,1.42-2.13.44-.72.89-1.5-.06.56-.11,1.12a70.64,70.64,0,0,0-.32,7.1,29.26,29.26,0,0,0,.74,6.63,15.87,15.87,0,0,0,1.35,3.64,10.65,10.65,0,0,0,2.37,3.08,8.56,8.56,0,0,0,3.48,1.87,7.79,7.79,0,0,0,2,.26,10.44,10.44,0,0,0,2.43-.3,16.7,16.7,0,0,0,5.66-2.65,38.72,38.72,0,0,0,5.16-4.39,56.35,56.35,0,0,0,4.8-5.54c1.51-2,2.93-4,4.23-5.93.37-.55.7-1.08,1.05-1.63.33,1.26.69,2.52,1.11,3.75a19.68,19.68,0,0,0,2.43,4.9,11.33,11.33,0,0,0,3.78,3.5,7.14,7.14,0,0,0,3.5.9,8.79,8.79,0,0,0,2-.25,32.69,32.69,0,0,0,8.92-3.41,47,47,0,0,0,7.42-5.2,57.11,57.11,0,0,0,6.19-6.18c1.83-2.13,3.52-4.29,5-6.4s2.88-4.1,4.07-5.93,2.2-3.32,3.1-4.57a4,4,0,0,0,.77-2.16A6,6,0,0,0,662.66,575.3Zm-39.35,4a23.19,23.19,0,0,1,2.28-4.38,40.67,40.67,0,0,1,3.51-4.57,52.58,52.58,0,0,1,4-4.1,36.23,36.23,0,0,1,3.67-3l.32-.22a9.46,9.46,0,0,1-.18,2,14.59,14.59,0,0,1-1.13,3.35,15.92,15.92,0,0,1-2.7,3.9,28.92,28.92,0,0,1-5.1,4.31A39.09,39.09,0,0,1,623.31,579.32ZM597,543.7c.29-1.83.65-3.67,1.06-5.49a34.59,34.59,0,0,1,2-6.27,17.33,17.33,0,0,1,2.91-4.65,7.86,7.86,0,0,1,.66-.66c-.48,1.57-1.1,3.36-1.84,5.33-.86,2.28-1.83,4.7-2.88,7.21Q598,541.51,597,543.7Zm-40.57,9.74c.29-1.82.65-3.67,1.06-5.49a34.66,34.66,0,0,1,2-6.27,17.35,17.35,0,0,1,2.91-4.65,8,8,0,0,1,.67-.66c-.48,1.56-1.1,3.35-1.84,5.33-.85,2.26-1.82,4.69-2.88,7.21Q557.42,551.25,556.48,553.44ZM374.16,593.8c.3-1.5.64-3,1-4.51a25.92,25.92,0,0,1,1.86-5,13.64,13.64,0,0,1,2.62-3.67,6.91,6.91,0,0,1,.62-.54c-.4,1.29-.93,2.72-1.59,4.28-.78,1.83-1.67,3.77-2.66,5.76C375.41,591.35,374.78,592.59,374.16,593.8Zm-121,95a21.12,21.12,0,0,1-7.8,3.59c-2.34.56-4.08.36-5.32-.61a9.09,9.09,0,0,1-2.93-5.21,19.21,19.21,0,0,1-.22-8.59,23.08,23.08,0,0,1,3.18-7.66,32.58,32.58,0,0,1,5.8-6.68A56,56,0,0,1,253.4,658a62.37,62.37,0,0,1,8.22-4.3c1.67-.72,3.29-1.36,4.85-1.92L266,657q-.42,4.18-.86,8.41a41.81,41.81,0,0,1-2,9.22,32.56,32.56,0,0,1-4,8A26.67,26.67,0,0,1,253.14,688.83Z"/><path class="a" d="M471.11,713c5.5-9.19,6.82-11.39,6.94-11.59l0-.05a23.06,23.06,0,0,0,3.23-14.5,14.23,14.23,0,0,0-6.52-10.64,12.51,12.51,0,0,0-12-1.16,19.33,19.33,0,0,0-8.55,7.51,4.62,4.62,0,0,0-.85,3.43,4.49,4.49,0,0,0,1.93,2.91c.82.62,2.22,1.63,4.14,3a2.14,2.14,0,0,0,1.63.6,1.08,1.08,0,0,0,.84-.77l.1-.34a1.07,1.07,0,0,0,0-.18,1.09,1.09,0,0,0,0-.28v-.1a9.24,9.24,0,0,1,2.14-4.55,3.54,3.54,0,0,1,3.84-1,3.71,3.71,0,0,1,2.55,3,6.47,6.47,0,0,1-.37,3.71,37,37,0,0,1-3.46,7L454.24,719.5c-1.08,1.75-.86,3-.43,3.81a2.73,2.73,0,0,0,1.35,1.69,3.21,3.21,0,0,0,1.51.44c12.81,0,19.54-.08,20.57-.1a3.74,3.74,0,0,0,2.72-1.2,4.14,4.14,0,0,0,1.1-2.83v-2.24a4.7,4.7,0,0,0-1.22-3.44,4.32,4.32,0,0,0-3.15-1.1l-5.08,0a4.39,4.39,0,0,1-1-.06l-.2-.06a.91.91,0,0,1,.07-.29A11.48,11.48,0,0,1,471.11,713Z"/><path class="a" d="M530.64,689.51h0a27.69,27.69,0,0,0-3.13-9.06,13.45,13.45,0,0,0-8.07-6.4,17.36,17.36,0,0,0-4.65-.45,13,13,0,0,0-11.51,6.77,22.16,22.16,0,0,0-2.71,7,58.82,58.82,0,0,0-.33,22.63,23.83,23.83,0,0,0,3.52,9.36,13,13,0,0,0,7.25,5.49,15.74,15.74,0,0,0,4.29.59,17.12,17.12,0,0,0,3.3-.33,12.84,12.84,0,0,0,8.36-5.67,22.12,22.12,0,0,0,3-6.63,48.49,48.49,0,0,0,1.45-13.28A50.58,50.58,0,0,0,530.64,689.51Zm-9.81,10v0A50.88,50.88,0,0,1,519.78,710a10.32,10.32,0,0,1-1.16,2.7,3.72,3.72,0,0,1-3.23,1.92,3.63,3.63,0,0,1-3.23-1.92,12.56,12.56,0,0,1-1.62-4.66,58.44,58.44,0,0,1-.53-11.41,34.51,34.51,0,0,1,.75-6.77,13.62,13.62,0,0,1,1.14-3.19,3.65,3.65,0,0,1,3.41-2.3h.06a3.59,3.59,0,0,1,3.37,2.16,17.2,17.2,0,0,1,1.65,5.69,19.73,19.73,0,0,1,.22,2.1C520.83,698.54,520.84,699.34,520.83,699.49Z"/><path class="a" d="M559.55,678.47a4.65,4.65,0,0,0-1.16-3.34,4.23,4.23,0,0,0-3.23-1.34h0c-1,0-2.81,0-5.52,0a4.22,4.22,0,0,0-1.61.3,3.7,3.7,0,0,0-2.69,3.31,16.83,16.83,0,0,0,0,4.44c.34,2.19,1.5,2.84,2.42,3,.18,0,.58.13.83,1.11a8.06,8.06,0,0,1,.19,2v33.41a4.38,4.38,0,0,0,1.08,2.8,3.91,3.91,0,0,0,2.69,1.28l1.31,0c.66,0,1.31,0,2-.06a3.73,3.73,0,0,0,3.68-3.6,11.42,11.42,0,0,0,.08-1.53c0-10.6,0-17.1-.06-19.29Z"/><path class="a" d="M606.18,676.11a3.58,3.58,0,0,0-3-1.24H592.63a1,1,0,0,0-.36.07H586.4c-3.75,0-4.39,0-4.57,0-2.36,0-3.78,1.51-3.89,4,0,.67-.06,1.49,0,2.44.08,2.79,1.57,4.35,4.2,4.38,3.69,0,6.15,0,7.33,0a12.49,12.49,0,0,1,2.95.05c.47.09.77.22.69,1.07a6.89,6.89,0,0,1-.25,1q-1.45,4.89-4,13.66-2.84,9.6-4,13.65c-.94,3.16-1.51,5.12-1.75,6a3.59,3.59,0,0,0,.22,2.67,2.79,2.79,0,0,0,2.15,1.49,18.19,18.19,0,0,0,2.1.12,21.7,21.7,0,0,0,2.55-.16,4.63,4.63,0,0,0,1.09-.33,5.85,5.85,0,0,0,3.07-3.88c.43-1.53,2.12-7.27,5.19-17.56q6-20.3,7.1-23.94A3.84,3.84,0,0,0,606.18,676.11Z"/></svg>